<svg width="73" height="20" xmlns="http://www.w3.org/2000/svg"><g fill-rule="nonzero" fill="none"><path d="M53.669 2.12c0-1.14.927-2.12 2.159-2.12 1.232 0 2.159.98 2.159 2.12 0 1.138-.927 2.118-2.16 2.118-1.231-.013-2.158-.993-2.158-2.119Zm.463 17.39V6.675c0-.278.053-.384 1.722-.384h.133c1.523 0 1.682.106 1.682.384V19.51c0 .278-.16.384-1.682.384h-.133c-1.669 0-1.722-.093-1.722-.384ZM59.642 13.1c0-4.557 2.292-7.272 5.67-7.272 1.205 0 2.211.41 3.072 1.165V.503c0-.278.053-.384 1.722-.384h.132c1.524 0 1.683.106 1.683.384v15.749c0 .57.238.715.741.715.305 0 .331.132.331 1.06v.278c0 .9-.053 1.112-.238 1.192-.464.185-1.166.304-1.854.304-1.14 0-1.908-.516-2.239-1.284-.874.927-2.159 1.443-3.59 1.443-3.377-.013-5.43-2.635-5.43-6.86Zm8.371 3.165c.278-.305.358-.729.358-1.39v-4.822c-.65-.768-1.417-1.192-2.318-1.192-1.88 0-2.781 1.497-2.781 4.225 0 1.523.357 2.503.874 3.1.463.542 1.205.741 1.933.741.729.013 1.55-.252 1.934-.662Z" fill="#007CBA"/><path d="M14.04 0c.397 0 .477.053.477 1.457v1.298c0 1.351-.106 1.51-.477 1.51H9.523v15.112c0 .345-.424.424-1.934.424h-.794c-1.537 0-1.802-.08-1.802-.424V4.265H.477C.106 4.252 0 4.145 0 2.742V1.457C0 0 .08 0 .477 0H14.04Zm8.092.424c0-.292-.423-.424-1.88-.424h-.848c-1.536 0-1.801.132-1.801.424v18.94c0 .345.265.424 1.801.424h.848c1.457 0 1.88-.08 1.88-.424V.424ZM44.172 0h-1.324c-1.696 0-1.802.185-1.934.477l-2.636 6.278c-.874 2.08-1.775 4.331-2.12 5.483-.317-1.165-.9-2.715-2.118-5.589L31.404.477C31.245.106 30.583 0 29.152 0H27.67c-1.457 0-1.748.132-1.748.424v18.94c0 .345.29.424 1.8.424h.822c1.483 0 1.907-.08 1.907-.424V8.132h.106s.133.53.345 1.007l3.02 7.046c.132.318.29.45 1.695.45h.9c1.431 0 1.537-.105 1.67-.45l2.754-6.781c.265-.636.45-1.272.45-1.272h.107v11.232c0 .345.291.424 1.854.424h.795c1.457 0 1.88-.08 1.88-.424V.424C46.053.132 45.63 0 44.172 0Z" fill="#004A97"/></g></svg>