<svg width="97" height="30" xmlns="http://www.w3.org/2000/svg"><g fill-rule="nonzero" fill="none"><circle fill="#F47B3F" cx="81.985" cy="14.908" r="14.908"/><g fill="#FFF"><path d="M73.19 21.573V8.336h2.13v13.237h-2.13zM86.954 21.16c-1.076.298-2.29.413-3.778.413h-4.237V8.336h4.97c1.236 0 2.29.091 3.228.32 3.07.733 5.107 2.726 5.107 6.092-.023 3.367-2.107 5.52-5.29 6.412zm-.39-10.626c-.846-.229-1.785-.274-2.93-.274h-2.565v9.412h2.06c1.306 0 2.382-.115 3.321-.39 2.199-.64 3.55-2.084 3.55-4.534 0-2.473-1.42-3.687-3.435-4.214z"/></g><g fill="#137AB9"><path d="M4.42 21.687c-1.42 0-2.359-.664-2.359-2.153v-5.84H0v-1.831h4.145v7.328c0 .412.252.595.71.595.229 0 .572-.046.847-.114l.413 1.763c-.596.16-1.123.252-1.695.252zM3.069 10.191c-.779 0-1.397-.573-1.397-1.374 0-.802.618-1.374 1.397-1.374.778 0 1.397.572 1.397 1.374 0 .801-.619 1.374-1.397 1.374zM19.053 21.687c-1.42 0-2.358-.664-2.358-2.153v-4.19c0-1.123-.344-1.855-1.58-1.855-1.878 0-3.504 2.13-4.1 4.488-.252 1.008-.297 1.81-.297 2.657v.939H8.634v-7.878h-2.13v-1.832h4.214v2.954h.045c.916-1.832 2.497-3.206 4.672-3.206 2.13 0 3.344 1.168 3.344 3.412v4.168c0 .412.252.595.71.595.229 0 .572-.046.847-.114l.412 1.763c-.572.16-1.1.252-1.695.252zM26.634 21.779c-1.558 0-3.046-.733-3.046-2.886v-5.198h-2.61v-1.832h2.61v-2.45h2.084v2.45h3.618v1.832h-3.618v4.786c0 1.1.572 1.397 1.35 1.397.734 0 1.444-.275 2.108-.641l.778 1.648c-.893.481-1.9.894-3.274.894zM35.52 17.634c-.734 0-1.535-.023-2.222-.092.091 1.534 1.374 2.336 3.252 2.336 1.328 0 2.244-.275 3.32-.733l.664 1.695c-1.19.572-2.473.939-4.213.939-3.23 0-5.313-1.901-5.313-4.878 0-3.32 2.358-5.313 5.61-5.313 2.199 0 4.145.939 4.145 2.954 0 1.947-1.809 3.092-5.244 3.092zm1.121-4.123c-1.672 0-2.931.733-3.252 2.199.664.092 1.397.092 2.038.092 2.497 0 3.16-.687 3.16-1.306-.022-.641-.8-.985-1.946-.985zM46.81 21.779c-1.695 0-3.299-.413-4.444-1.077l.848-1.717c.939.526 2.107.893 3.526.893 1.123 0 2.268-.23 2.268-1.145a.738.738 0 0 0-.16-.458c-.848-.962-4.49-.298-5.634-2.199-.23-.366-.367-.847-.367-1.42 0-2.038 1.718-3.045 3.893-3.045 1.443 0 2.863.32 4.329.916l-.71 1.717c-1.351-.504-2.336-.733-3.527-.733-1.237 0-1.786.413-1.786 1.031 0 .183.046.32.114.435.664 1.076 4.008.481 5.428 1.878.39.39.618.916.618 1.718 0 2.358-2.084 3.206-4.397 3.206zM63.183 21.687c-1.122 0-2.152-.458-2.336-1.9a3.8 3.8 0 0 1-.045-.55h-.046c-.825 1.58-2.267 2.542-4.122 2.542-1.993 0-3.848-1.329-3.848-4.214 0-2.038.87-3.733 2.428-4.786 1.099-.733 2.542-1.191 4.626-1.191.893 0 2.107.091 2.954.206v7.26c0 .457.252.732.756.732.16 0 .503-.046.778-.114l.412 1.763a5.392 5.392 0 0 1-1.557.252zm-2.45-8.13a9.808 9.808 0 0 0-1.191-.068c-1.282 0-2.336.32-3.092.893-.916.71-1.442 1.786-1.442 3.068 0 1.58.778 2.382 1.923 2.382 1.74 0 3.802-1.878 3.802-6.114v-.16z"/></g></g></svg>