<svg version="1.1" id="Layer_1" xmlns="http://www.w3.org/2000/svg" x="0" y="0" viewBox="0 0 590 133" style="enable-background:new 0 0 590 133" xml:space="preserve"><style>.st1{fill-rule:evenodd;clip-rule:evenodd;fill:#fff}</style><circle cx="523.7" cy="66.3" r="66.3" style="fill:#06c"/><g id="SPID-1280-home_00000018205375307400740890000016177233088412472251_"><g id="Hero-block-home_00000047036433826019599850000012586083955070267547_"><g id="Group-7_00000162332291028136919030000000345822807828286399_"><path id="Fill-198_00000011750709082880208410000002562703752293242013_" class="st1" d="M490.7 61.2c-3-.5-6.1-.7-9.1-.9-1.7 0-2.9.2-3.4.5s-.8.9-.8 1.5c0 .7.4 1.3 1 1.4 1.7.5 3.5.9 5.3 1.2 2.8.5 4.8 1.4 6 2.5 1.2 1.2 1.8 3.1 1.8 5.7 0 5.8-3.5 8.7-10.6 8.7-2.8-.1-5.7-.4-8.4-1l-1.7-.3.2-6c3 .5 6 .7 9.1.9 1.2.1 2.4-.1 3.5-.5.6-.3.9-.9.9-1.5 0-.7-.4-1.2-1-1.5-1.6-.6-3.3-1-5.1-1.2-2.7-.5-4.8-1.2-6.1-2.4-1.3-1.1-2-3.1-2-5.9s.9-5 2.8-6.4c2.1-1.5 4.7-2.3 7.3-2.2 2.9.1 5.7.4 8.5 1l1.7.3.1 6.1z"/><path id="Fill-200_00000014599678817260673690000016181880682999562894_" class="st1" d="M496.7 92.8V54.6h7.2v1.5c2.3-1.4 4.4-2.1 6.2-2.1 3.6 0 6.3 1.1 8 3.3s2.6 5.9 2.6 11.1-1 8.8-2.9 10.8-5 3-9.4 3c-1.3 0-2.6-.1-3.8-.3l-.6-.1v11.1l-7.3-.1zm11.9-32.4c-1.4 0-2.8.3-4.1.8l-.6.3v14.1c1.3.2 2.6.3 3.9.3 2.1 0 3.5-.6 4.3-1.8.8-1.2 1.2-3.3 1.2-6.2 0-5-1.6-7.5-4.7-7.5z"/><path id="Fill-202_00000096775979624258293840000018257627619310905530_" class="st1" d="M569.2 43.7v37.6h-7.1v-1.1c-2 1.1-4.2 1.7-6.5 1.8-3.9 0-6.6-1.1-8.1-3.4s-2.3-5.8-2.3-10.7c0-4.9.9-8.5 2.8-10.7 1.8-2.2 4.6-3.4 8.3-3.4 1.6 0 3.2.2 4.8.5l1 .2V43.7h7.1zm-7.9 31.1.7-.2V60.5c-1.7-.3-3.5-.5-5.2-.5-2.9 0-4.3 2.6-4.3 7.7 0 2.8.3 4.8 1 6 .6 1.2 1.9 1.9 3.2 1.8 1.5 0 3.1-.2 4.6-.7z"/><path id="Fill-204_00000140714683891128743330000009905517394521890176_" class="st1" d="M533.3 69.9c-2 .1-4-.7-5.4-2.2s-2.2-3.5-2.1-5.5c-.1-2 .7-4 2.1-5.5 1.4-1.5 3.4-2.3 5.4-2.2 2-.1 4 .7 5.3 2.2 1.4 1.5 2.1 3.5 2 5.5.1 2-.7 4-2 5.5-1.4 1.5-3.3 2.3-5.3 2.2"/><path id="Fill-206_00000092423951127262537330000009653995489658938012_" class="st1" d="M525.8 81.3c-.1-2.1.7-4.1 2.1-5.6 1.4-1.5 3.3-2.3 5.4-2.3 2-.1 4 .8 5.3 2.3 1.4 1.6 2.1 3.6 2 5.7"/></g></g></g><g><g id="XMLID_17_"><g id="XMLID_22_"><path id="XMLID_23_" d="M56.5 45.6c0-14 11.4-25.4 25.4-25.4s25.4 11.4 25.4 25.4S95.8 71 81.8 71 56.5 59.6 56.5 45.6m-20.2 0c0 25.2 20.4 45.6 45.6 45.6s45.6-20.4 45.6-45.6S107 0 81.8 0 36.3 20.4 36.3 45.6z"/></g><path id="XMLID_21_" d="M10.7 88.4C4.8 88.4 0 83.6 0 77.6V13.5C0 7.6 4.8 2.8 10.7 2.8c5.9 0 10.7 4.8 10.7 10.7v64.1c.1 6-4.7 10.8-10.7 10.8z"/><g id="XMLID_18_"><g id="XMLID_19_"><circle id="XMLID_20_" cx="82.3" cy="118.1" r="14"/></g></g></g><path d="M169 6.6c0-1.8 1.5-3.2 3.2-3.2 1.8 0 3.2 1.5 3.2 3.2v51.1c0 1.8-1.5 3.2-3.2 3.2-1.7 0-3.2-1.5-3.2-3.2V6.6zM191 6.7c0-1.7 1.5-3.2 3.2-3.2h.9c1.5 0 2.4.7 3.2 1.9l34.5 44V6.5c0-1.7 1.4-3.2 3.2-3.2 1.7 0 3.1 1.5 3.1 3.2v51.3c0 1.7-1.2 3-2.9 3h-.3c-1.4 0-2.4-.8-3.3-1.9l-35.2-45.1v44c0 1.7-1.4 3.2-3.2 3.2-1.7 0-3.1-1.5-3.1-3.2V6.7zM269.1 9.7h-16.5c-1.6 0-3-1.3-3-2.9s1.4-3 3-3h39.5c1.6 0 3 1.4 3 3s-1.4 2.9-3 2.9h-16.5v48.1c0 1.8-1.5 3.2-3.2 3.2s-3.2-1.5-3.2-3.2l-.1-48.1zM305.6 57.4V7c0-1.8 1.5-3.2 3.2-3.2h35.3c1.6 0 2.9 1.3 2.9 2.9s-1.3 2.9-2.9 2.9H312V29h28.4c1.6 0 2.9 1.4 2.9 2.9 0 1.6-1.3 2.9-2.9 2.9H312v19.9h32.5c1.6 0 2.9 1.3 2.9 2.9s-1.3 2.9-2.9 2.9h-35.7c-1.7.1-3.2-1.4-3.2-3.1zM356.9 53.8c-.7-.5-1.2-1.4-1.2-2.4 0-1.8 1.4-3.2 3.1-3.2.8 0 1.5.3 1.9.7 5.4 4.5 10.7 6.7 17.9 6.7 7.6 0 12.7-4.1 12.7-9.7v-.2c0-5.3-2.8-8.3-14.8-10.8-13.1-2.8-19.1-7.1-19.1-16.4v-.2c0-8.9 7.9-15.5 18.7-15.5 7.5 0 12.9 1.9 18.1 5.6.6.5 1.4 1.4 1.4 2.6 0 1.7-1.4 3.1-3.1 3.1-.7 0-1.3-.2-1.9-.6-4.8-3.5-9.4-5-14.7-5-7.4 0-12.1 4.1-12.1 9.2v.3c0 5.4 2.9 8.4 15.4 11 12.7 2.8 18.5 7.4 18.5 16.1v.2c0 9.7-8.1 16.1-19.4 16.1-8.1 0-15-2.6-21.4-7.6zM410.4 6.6c0-1.8 1.5-3.2 3.2-3.2 1.8 0 3.2 1.5 3.2 3.2v51.1c0 1.8-1.5 3.2-3.2 3.2-1.7 0-3.2-1.5-3.2-3.2V6.6z"/><g><path d="M164.6 107.7v-.1c0-13.4 9.8-25.3 24.5-25.3 7.4 0 12.2 2 16.7 5.2.6.5 1.1 1.3 1.1 2.2 0 1.5-1.3 2.8-2.7 2.8-.6 0-1.2-.3-1.7-.7-3.5-2.7-7.4-4.5-13.5-4.5-10.8 0-18.6 9.1-18.6 20v.1c0 11.7 7.5 20.3 19.3 20.3 5.6 0 10.7-2.2 14.1-4.9v-12.1h-13.1c-1.3 0-2.4-1.1-2.4-2.4 0-1.4 1.1-2.5 2.4-2.5h15.7c1.5 0 2.7 1.3 2.7 2.8v14.9c0 1.3-.6 2.5-1.9 3.4-4.5 3.3-10.5 5.9-17.7 5.9-15.4.1-24.9-11.1-24.9-25.1zM221.5 86c0-1.5 1.3-2.8 2.7-2.8h18.3c6 0 10.8 1.8 13.9 4.9 2.4 2.4 3.8 5.8 3.8 9.6v.1c0 8-5.4 12.7-13 14.2l12.1 15.6c.6.6.9 1.3.9 2 0 1.5-1.4 2.7-2.8 2.7-1.1 0-2-.6-2.6-1.5l-13.7-17.9h-14v16.5c0 1.5-1.3 2.8-2.8 2.8-1.5 0-2.7-1.3-2.7-2.8V86zm20.5 22.1c7.3 0 12.6-3.8 12.6-10V98c0-6-4.6-9.6-12.5-9.6H227v19.8l15-.1zM269.8 107.7v-.1c0-13.5 10.1-25.3 25-25.3s24.8 11.7 24.8 25.1v.1c0 13.5-10.1 25.3-25 25.3-14.8.1-24.8-11.6-24.8-25.1zm44.1 0v-.1c0-11.1-8.1-20.2-19.3-20.2s-19.1 8.9-19.1 20v.1c0 11.1 8.1 20.2 19.3 20.2 11.1.1 19.1-8.9 19.1-20zM330.5 111.6v-26c0-1.5 1.3-2.8 2.7-2.8 1.5 0 2.8 1.3 2.8 2.8v25.6c0 10.5 5.7 16.5 14.9 16.5 9 0 14.7-5.4 14.7-16.1v-26c0-1.5 1.3-2.8 2.8-2.8 1.5 0 2.7 1.3 2.7 2.8v25.5c0 14.2-8.2 21.6-20.4 21.6-12 .1-20.2-7.3-20.2-21.1zM384.2 86c0-1.5 1.3-2.8 2.7-2.8h15.6c11 0 18.3 5.9 18.3 15.5v.1c0 10.5-8.8 16-19.2 16h-11.9v14.8c0 1.5-1.3 2.8-2.8 2.8-1.5 0-2.7-1.3-2.7-2.8V86zm17.6 23.8c8.1 0 13.4-4.3 13.4-10.7V99c0-7-5.2-10.6-13.1-10.6h-12.3v21.5l12-.1z"/></g></g></svg>