<svg width="107" height="30" xmlns="http://www.w3.org/2000/svg"><g fill-rule="nonzero" fill="none"><g fill="#0047BB"><path d="M81.94 10.903h-.604l-4.097-5.91h-.023v5.91h-.604V4.007h.604l4.097 5.889h.023V4.007h.604zM88.276 4.007v4.59c0 .761-.246 1.343-.739 1.769-.492.425-1.12.649-1.88.649-.761 0-1.366-.224-1.858-.65-.47-.425-.717-1.03-.717-1.768v-4.59h.605v4.59c0 .604.179 1.075.56 1.41.357.359.85.515 1.41.515.582 0 1.074-.179 1.455-.515.38-.358.56-.828.56-1.41v-4.59h.604ZM94.701 8.015c0 .895-.246 1.612-.76 2.172-.516.56-1.21.828-2.06.828-.851 0-1.523-.269-2.038-.828-.515-.56-.76-1.277-.76-2.172v-1.12c0-.895.245-1.611.76-2.171.493-.56 1.187-.828 2.038-.828.85 0 1.544.268 2.06.828.514.56.76 1.276.76 2.172v1.119Zm-.582-1.142c0-.739-.201-1.343-.604-1.79-.403-.449-.94-.695-1.657-.695-.694 0-1.231.224-1.612.694-.38.448-.582 1.052-.582 1.791v1.142c0 .761.202 1.366.582 1.813.38.448.918.672 1.612.672.717 0 1.254-.224 1.657-.672.403-.447.582-1.052.582-1.813V6.873h.022ZM97.567 9.694l.134.493h.023l.134-.493 2.172-5.687h.65l-2.687 6.896h-.56l-2.687-6.896h.65zM106.388 8.015c0 .895-.246 1.612-.761 2.172s-1.21.828-2.06.828c-.85 0-1.522-.269-2.037-.828-.515-.56-.761-1.277-.761-2.172v-1.12c0-.895.246-1.611.76-2.171.493-.56 1.187-.828 2.038-.828.85 0 1.545.268 2.06.828.515.56.761 1.276.761 2.172v1.119Zm-.582-1.142c0-.739-.202-1.343-.605-1.79-.402-.449-.94-.695-1.656-.695-.694 0-1.232.224-1.612.694-.38.448-.582 1.052-.582 1.791v1.142c0 .761.201 1.366.582 1.813.38.448.918.672 1.612.672.716 0 1.254-.224 1.656-.672.403-.447.583-1.052.583-1.813V6.873h.022Z"/></g><g fill="#0047BB"><path d="M79.343 16.187h-1.142l-.223.716h-.94l1.253-3.672h.94l1.254 3.672h-.94l-.202-.716Zm-.94-.65h.739l-.358-1.141h-.023l-.358 1.141ZM80.799 16.903v-3.672h1.253c.47 0 .851.09 1.12.247.268.179.403.425.403.76 0 .18-.045.337-.135.471a.823.823 0 0 1-.403.313c.224.045.403.135.515.291a.826.826 0 0 1 .157.515c0 .359-.134.627-.38.806-.247.18-.605.269-1.098.269H80.8Zm.895-2.15h.358c.224 0 .38-.044.493-.111.112-.067.156-.18.156-.314 0-.156-.044-.268-.156-.335a.91.91 0 0 0-.47-.112h-.359v.873h-.022Zm0 .583v.918h.582c.202 0 .336-.045.425-.112.09-.067.135-.18.135-.336a.473.473 0 0 0-.135-.358c-.09-.09-.223-.135-.425-.135H81.694v.023ZM85.209 16.903h-.896v-3.672h.896zM86.776 16.254h1.657v.649H85.88v-3.672h.895zM89.843 16.903h-.895v-3.672h.895zM93.134 13.88h-1.03v3.023h-.895v-3.022h-1.008v-.65h2.91v.65zM95.216 16.187h-1.141l-.224.716h-.94l1.253-3.672h.94l1.254 3.672h-.94l-.202-.716Zm-.94-.65h.739l-.358-1.141h-.023l-.358 1.141ZM99.112 13.88h-1.03v3.023h-.895v-3.022h-1.008v-.65h2.91v.65zM102.604 15.403c0 .448-.156.828-.447 1.12-.291.29-.694.447-1.187.447-.492 0-.895-.157-1.186-.448-.314-.29-.448-.671-.448-1.119v-.672c0-.447.157-.828.448-1.12.313-.29.694-.447 1.186-.447.493 0 .873.157 1.187.448.313.291.447.672.447 1.12v.671Zm-.895-.672c0-.268-.067-.47-.202-.649-.134-.179-.313-.246-.56-.246a.695.695 0 0 0-.559.246c-.134.157-.201.38-.201.65v.671c0 .269.067.493.201.65.134.178.313.246.56.246.224 0 .425-.09.537-.247.134-.179.202-.38.202-.649v-.672h.022Z"/></g><g fill="#0047BB"><path d="M82.746 20.955c-1.298-.156-2.216-.246-2.731-.246-.515 0-.85.045-1.008.134-.156.09-.223.224-.223.426 0 .201.112.335.313.403.202.067.716.179 1.567.335.85.135 1.433.381 1.791.717.358.336.538.873.538 1.612 0 1.612-1.053 2.418-3.157 2.418-.694 0-1.523-.09-2.508-.269l-.492-.09.067-1.679c1.298.157 2.194.247 2.709.247.515 0 .85-.045 1.03-.135a.46.46 0 0 0 .268-.425c0-.18-.09-.336-.29-.425-.202-.09-.695-.202-1.5-.336-.807-.135-1.411-.358-1.814-.65-.403-.313-.605-.85-.605-1.656 0-.784.292-1.388.851-1.791.56-.403 1.299-.605 2.172-.605.627 0 1.455.09 2.53.291l.515.09-.023 1.634ZM87.985 20.709c-.38 0-.784.067-1.186.224l-.18.067v3.918c.47.067.851.09 1.142.09.605 0 1.03-.18 1.254-.515.224-.336.336-.918.336-1.747 0-1.343-.448-2.037-1.366-2.037Zm-3.47 9.022V19.097h2.082v.403c.672-.38 1.276-.582 1.791-.582 1.052 0 1.836.313 2.328.918.493.604.762 1.634.762 3.09 0 1.455-.269 2.462-.829 3.022-.56.56-1.455.85-2.731.85a6.82 6.82 0 0 1-1.12-.089l-.179-.022v3.09h-2.104v-.046ZM103.545 24.784l.224-.045v-3.94c-.582-.09-1.097-.157-1.545-.157-.85 0-1.276.716-1.276 2.149 0 .784.09 1.343.29 1.657.18.336.493.492.941.492.425.023.896-.044 1.366-.156Zm2.328-8.687v10.5h-2.082v-.313c-.739.335-1.366.492-1.903.492-1.142 0-1.925-.313-2.395-.94-.448-.627-.672-1.635-.672-3 0-1.366.269-2.35.806-2.978.537-.627 1.343-.94 2.44-.94.336 0 .806.045 1.388.157l.291.067v-3.045h2.127ZM95.15 23.44c-.65 0-1.187-.201-1.59-.627-.426-.425-.627-.94-.627-1.544 0-.627.201-1.142.627-1.545.425-.403.94-.605 1.59-.605.649 0 1.163.202 1.589.627.403.426.604.94.604 1.545 0 .627-.201 1.12-.604 1.545-.426.403-.94.604-1.59.604M92.933 26.485c0-.627.201-1.142.627-1.545.425-.403.94-.604 1.59-.604.649 0 1.163.201 1.589.627.403.425.604.94.604 1.544"/></g><path fill="#FFF" d="M0 0h49.119v29.888H0z"/><path fill="#EDDB00" d="M44.754 0h29.888v29.888H44.754z"/><g fill="#0047BB"><path d="M5.485 19.231v-9.85h4.522c2.418 0 4.008.783 4.008 3.156s-1.59 3.157-4.008 3.157h-1.79v3.515H5.484v.022Zm4.12-5.44c1.074-.045 1.522-.537 1.522-1.254 0-.716-.448-1.209-1.523-1.253h-1.41v2.507h1.41ZM22.075 15.806c0 2.53-1.836 3.627-3.985 3.627-2.15 0-3.986-1.097-3.986-3.627s1.836-3.627 3.986-3.627c2.149 0 3.985 1.097 3.985 3.627m-3.985 2.127c1.097 0 1.32-1.164 1.32-2.127 0-.963-.223-2.127-1.32-2.127s-1.321 1.164-1.321 2.127c-.023.963.224 2.127 1.32 2.127M26.597 14.485c0-.224-.045-.448-.157-.582-.134-.157-.358-.246-.716-.246-.38 0-.605.224-.605.604 0 .515 1.053.47 2.665.985.828.269 1.388.761 1.388 1.88 0 1.814-1.702 2.284-3.269 2.284-1.68 0-3.313-.335-3.313-2.44h2.462a.682.682 0 0 0 .18.605c.156.179.358.313.604.313.515 0 .873-.201.873-.627 0-1.209-4.052-.492-4.052-2.977 0-1.702 1.813-2.15 3.156-2.15 1.635 0 3.135.426 3.224 2.329h-2.44v.022ZM30.873 12.38v-1.03l2.597-.984v2.015h1.5v1.634h-1.5v2.709c0 .179-.112 1.075.493 1.075.336 0 .694 0 1.007-.045v1.545a6.972 6.972 0 0 1-1.388.134c-1.769 0-2.82-.246-2.686-2.35v-3.068h-1.344V12.38h1.321ZM37.97 16.32c-.022.896.224 1.658 1.187 1.658.716 0 1.164-.336 1.276-.985h2.395c-.09.895-.649 1.522-1.298 1.903-.605.38-1.366.537-2.172.537-2.731 0-3.828-1.164-3.828-3.873 0-2.172 1.634-3.403 3.694-3.403 2.776 0 3.672 1.59 3.672 4.142H37.97v.022Zm2.463-1.387a1.86 1.86 0 0 0-.314-1.03.994.994 0 0 0-.895-.448c-.896.045-1.12.694-1.187 1.455h2.396v.023Z"/></g><path fill="#0047BB" d="M0 29.888h44.754v-2.552H2.552V2.552h42.202V0H0z"/><g fill="#0047BB"><path d="M51.582 21.806V7.567h2.776v14.239zM66.582 20.463c-.94.94-2.283 1.365-3.761 1.365h-5.15V7.568h5.15c1.478 0 2.82.425 3.761 1.365 1.59 1.59 1.433 3.56 1.433 5.709 0 2.127.157 4.209-1.433 5.82Zm-1.948-9.515c-.47-.582-1.12-.873-2.082-.873h-2.104v9.268h2.104c.963 0 1.59-.29 2.082-.873.515-.65.605-1.657.605-3.828 0-2.172-.09-3.067-.605-3.694Z"/></g></g></svg>