<svg width="109" height="29" xmlns="http://www.w3.org/2000/svg"><g fill-rule="nonzero" fill="none"><path d="M17.018 28.82c-5.148-.944-8.97-4.091-10.993-9.082-.382-.944-.877-2.608-.787-2.675.022-.023 1.619-.068 3.53-.068h3.484l7.486 3.687 7.486 3.687h1.664c1.056 0 1.663.045 1.663.112 0 .225-1.439 1.484-2.315 2.069-1.552 1.011-3.17 1.663-5.126 2.113-1.281.315-4.81.382-6.092.157zm2.765-10.925-7.531-3.665H0v-2.135h12.297l7.486 3.686 7.486 3.687h81.312v2.136H27.336l-7.553-3.71zm81.874-.877c-1.438-.27-2.135-1.866-1.708-3.844.45-2.091 1.64-3.305 3.35-3.417.719-.045 1.303.112 1.888.54.112.067.225.112.247.067.045-.045.157-.652.292-1.394.315-1.956.203-1.799 1.641-1.799.945 0 1.214.023 1.26.158.022.09-.225 1.73-.563 3.664-.337 1.933-.697 3.934-.786 4.474-.248 1.528-.158 1.438-1.507 1.438h-1.146v-.382c0-.45-.135-.472-.585-.09-.607.495-1.55.742-2.383.585zm2.428-2.09c.405-.203.72-.72.877-1.485.225-1.056-.157-1.686-.99-1.686-.808 0-1.303.742-1.393 2.001-.045.72-.022.787.225 1.034.337.315.787.36 1.281.135zM42.331 16.68c-.81-.248-1.304-.63-1.686-1.26-.315-.539-.607-1.438-.495-1.55.045-.045.607-.113 1.282-.135l1.214-.068.135.405c.247.787.854 1.214 1.686 1.214.876 0 1.483-.472 1.483-1.147 0-.517-.472-.921-1.259-1.146-2.472-.675-3.372-1.08-3.821-1.754-.562-.831-.562-1.888.022-2.787.248-.405.472-.585 1.08-.877l.741-.382h1.664c1.506 0 1.708.022 2.225.247a2.901 2.901 0 0 1 1.507 1.551c.292.742.202.832-.742.832-.427 0-.967.023-1.17.067-.359.045-.404.023-.606-.337-.338-.607-.72-.832-1.417-.832-.494 0-.652.045-.899.27-.337.337-.382.765-.09 1.057.113.112.832.36 1.686.584 2.293.607 3.058 1.012 3.485 1.934.157.337.225.697.225 1.214 0 1.259-.652 2.248-1.866 2.81-.54.247-.742.27-2.18.292-1.305 0-1.687-.023-2.204-.202zm52.852.135c-.09-.158 1.146-6.812 1.281-6.902.18-.112 2.181-.09 2.36.022.136.09.068.607-.426 3.395-.315 1.82-.607 3.35-.63 3.44-.067.134-2.495.18-2.585.045zM19.76 13.084l-7.44-3.665H9.06c-1.799 0-3.26-.045-3.26-.09s.247-.584.54-1.169l.54-1.101h5.394l15.062 7.486h7.599l-.068.967c-.045.54-.112 1.034-.134 1.124-.045.135-.585.157-3.8.135h-3.731l-7.442-3.687zm30.934-1.034.022-4.744h2.63v9.42l-2.675.067.023-4.743zm5.26 0 .023-4.744 3.866-.022 3.867-.023v1.821h-2.405c-1.934 0-2.428.023-2.518.158-.09.09-.113.427-.09.876l.022.742 2.293.045 2.293.045v1.709l-2.293.045-2.293.045-.022.921c-.023.675 0 .944.112 1.034.09.09.967.135 2.608.158l2.45.022v1.821l-3.979.023-3.979.022.045-4.698zm9.96 0 .022-4.744h2.63l.045 3.642.045 3.642 2.315.022 2.316.023v2.136h-7.441l.067-4.721zm10.88 4.676c-.045-.045-.068-1.686-.068-3.642V9.509l-.247-.045c-.135-.022-.81-.067-1.506-.09l-1.259-.022V7.329h8.857v2.023l-1.438.045c-.787.022-1.484.09-1.53.135-.044.045-.112 1.686-.112 3.642l-.022 3.552-1.304.022c-.697.023-1.326.023-1.371-.022zm7.53-.068c-.022-.067-.044-2.203-.022-4.743l.023-4.609h7.778v1.709l-2.473.045-2.473.045-.067 1.753 4.541.068v1.708l-2.27.023-2.271.022.022 1.034.023 1.034 2.54.023 2.54.022v1.911h-3.934c-3.012.09-3.911.045-3.956-.045zM19.806 8.116l-7.373-3.62h-1.664c-.989 0-1.663-.045-1.663-.112 0-.36 1.82-1.821 3.192-2.54C13.33 1.28 14.972.673 16.41.36c1.596-.36 4.608-.472 6.25-.203 4.653.742 8.272 3.44 10.386 7.711.517 1.034 1.258 3.035 1.326 3.575l.045.27-3.62.022-3.596.022-7.397-3.641zm76.727.719c0-.315.247-1.416.36-1.551.067-.09.472-.135 1.303-.135.877 0 1.192.045 1.214.135.023.225-.022.54-.135 1.124l-.112.562h-1.304c-1.034 0-1.326-.023-1.326-.135z" fill="#1B72B8"/><path d="M17.018 28.82c-5.148-.944-8.97-4.091-10.993-9.082-.382-.944-.877-2.608-.787-2.675.022-.023 1.619-.068 3.53-.068h3.484l7.486 3.687 7.486 3.687h1.664c1.056 0 1.663.045 1.663.112 0 .225-1.439 1.484-2.315 2.069-1.552 1.011-3.17 1.663-5.126 2.113-1.281.315-4.81.382-6.092.157zm84.64-11.802c-1.44-.27-2.136-1.866-1.71-3.844.45-2.091 1.642-3.305 3.35-3.417.72-.045 1.304.112 1.889.54.112.067.225.112.247.067.045-.045.157-.652.292-1.394.315-1.956.203-1.799 1.641-1.799.945 0 1.214.023 1.26.158.022.09-.225 1.73-.563 3.664-.337 1.933-.697 3.934-.786 4.474-.248 1.528-.158 1.438-1.507 1.438h-1.146v-.382c0-.45-.135-.472-.585-.09-.607.495-1.55.742-2.383.585zm2.427-2.09c.405-.203.72-.72.877-1.485.225-1.056-.157-1.686-.99-1.686-.808 0-1.303.742-1.393 2.001-.045.72-.022.787.225 1.034.337.315.787.36 1.281.135zM42.331 16.68c-.81-.248-1.304-.63-1.686-1.26-.315-.539-.607-1.438-.495-1.55.045-.045.607-.113 1.282-.135l1.214-.068.135.405c.247.787.854 1.214 1.686 1.214.876 0 1.483-.472 1.483-1.147 0-.517-.472-.921-1.259-1.146-2.472-.675-3.372-1.08-3.821-1.754-.562-.831-.562-1.888.022-2.787.248-.405.472-.585 1.08-.877l.741-.382h1.664c1.506 0 1.708.022 2.225.247a2.901 2.901 0 0 1 1.507 1.551c.292.742.202.832-.742.832-.427 0-.967.023-1.17.067-.359.045-.404.023-.606-.337-.338-.607-.72-.832-1.417-.832-.494 0-.652.045-.899.27-.337.337-.382.765-.09 1.057.113.112.832.36 1.686.584 2.293.607 3.058 1.012 3.485 1.934.157.337.225.697.225 1.214 0 1.259-.652 2.248-1.866 2.81-.54.247-.742.27-2.18.292-1.305 0-1.687-.023-2.204-.202zm52.852.135c-.09-.158 1.146-6.812 1.281-6.902.18-.112 2.181-.09 2.36.022.136.09.068.607-.426 3.395-.315 1.82-.607 3.35-.63 3.44-.067.134-2.495.18-2.585.045zM19.76 13.084l-7.44-3.665H9.06c-1.799 0-3.26-.045-3.26-.09s.247-.584.54-1.169l.54-1.101h5.394l15.062 7.486h7.599l-.068.967c-.045.54-.112 1.034-.134 1.124-.045.135-.585.157-3.8.135h-3.731l-7.442-3.687zm30.934-1.034.022-4.744h2.63v9.42l-2.675.067.023-4.743zm5.26 0 .023-4.744 3.866-.022 3.867-.023v1.821h-2.405c-1.934 0-2.428.023-2.518.158-.09.09-.113.427-.09.876l.022.742 2.293.045 2.293.045v1.709l-2.293.045-2.293.045-.022.921c-.023.675 0 .944.112 1.034.09.09.967.135 2.608.158l2.45.022v1.821l-3.979.023-3.979.022.045-4.698zm9.96 0 .022-4.744h2.63l.045 3.642.045 3.642 2.315.022 2.316.023v2.136h-7.441l.067-4.721zm10.88 4.676c-.045-.045-.068-1.686-.068-3.642V9.509l-.247-.045c-.135-.022-.81-.067-1.506-.09l-1.259-.022V7.329h8.857v2.023l-1.438.045c-.787.022-1.484.09-1.53.135-.044.045-.112 1.686-.112 3.642l-.022 3.552-1.304.022c-.697.023-1.326.023-1.371-.022zm7.53-.068c-.022-.067-.044-2.203-.022-4.743l.023-4.609h7.778v1.709l-2.473.045-2.473.045-.067 1.753 4.541.068v1.708l-2.27.023-2.271.022.022 1.034.023 1.034 2.54.023 2.54.022v1.911h-3.934c-3.012.09-3.911.045-3.956-.045zm12.208-7.823c0-.315.247-1.416.36-1.551.067-.09.472-.135 1.303-.135.877 0 1.192.045 1.214.135.023.225-.022.54-.135 1.124l-.112.562h-1.304c-1.034 0-1.326-.023-1.326-.135z" fill="#E5092E"/><path d="M17.018 28.82c-5.148-.944-8.97-4.091-10.993-9.082-.382-.944-.877-2.608-.787-2.675.022-.023 1.619-.068 3.53-.068h3.484l7.486 3.687 7.486 3.687h1.664c1.056 0 1.663.045 1.663.112 0 .225-1.439 1.484-2.315 2.069-1.552 1.011-3.17 1.663-5.126 2.113-1.281.315-4.81.382-6.092.157zM42.33 16.68c-.81-.247-1.304-.629-1.686-1.258-.315-.54-.607-1.44-.495-1.551.045-.045.607-.113 1.282-.135l1.214-.068.135.405c.247.787.854 1.214 1.686 1.214.876 0 1.483-.472 1.483-1.147 0-.517-.472-.921-1.259-1.146-2.472-.675-3.372-1.08-3.821-1.754-.562-.831-.562-1.888.022-2.787.248-.405.472-.585 1.08-.877l.719-.382.72-.135c1.865-.337 2.674.157 3.191.382a2.901 2.901 0 0 1 1.507 1.551c.292.742.202.832-.742.832-.427 0-.967.023-1.17.067-.359.045-.404.023-.606-.337-.338-.607-.72-.832-1.417-.832-.494 0-.652.045-.899.27-.337.337-.382.765-.09 1.057.113.112.832.36 1.686.584 2.293.607 3.058 1.012 3.485 1.934.157.337.225.697.225 1.214 0 1.259-.652 2.248-1.866 2.81-.54.247-.742.27-2.18.292-1.305 0-1.687-.023-2.204-.202zm-22.57-3.596-7.442-3.665H9.06c-1.798 0-3.259-.045-3.259-.09s.247-.584.54-1.169l.54-1.101h5.394l15.062 7.486h7.599l-.068.967c-.045.54-.067 1.236-.157 1.236-.247.023-.562.045-3.777.023h-3.731l-7.442-3.687zm30.933-1.034.022-4.744h2.63v9.42l-2.675.067.023-4.743zm5.26 0 .023-4.744 3.866-.022 3.867-.023v1.821h-2.405c-1.934 0-2.428.023-2.518.158-.09.09-.113.427-.09.876l.022.742 2.293.045 2.293.045v1.709l-2.293.045-2.293.045-.022.921c-.023.675 0 .944.112 1.034.09.09.967.135 2.608.158l2.45.022v1.821l-3.979.023-3.979.022.045-4.698zm9.96 0 .022-4.744h2.63l.045 3.642.045 3.642 2.315.022 2.316.023v2.136h-7.441l.067-4.721zm10.88 4.676c-.045-.045-.068-1.686-.068-3.642V9.509l-.247-.045c-.135-.022-.81-.067-1.506-.09l-1.259-.022V7.329h8.857v2.023l-1.438.045c-.787.022-1.484.09-1.53.135-.044.045-.112 1.686-.112 3.642l-.022 3.552-1.304.022c-.697.023-1.326.023-1.371-.022zm7.53-.068c-.022-.067-.044-2.203-.022-4.743l.023-4.609h7.778v1.709l-2.473.045-2.473.045-.067 1.753 4.541.068v1.708l-2.27.023-2.271.022.022 1.034.023 1.034 2.54.023 2.54.022v1.911h-3.934c-3.012.09-3.911.045-3.956-.045z" fill="#012E6D"/></g></svg>