<svg version="1.1" id="Livello_1" xmlns="http://www.w3.org/2000/svg" x="0" y="0" viewBox="0 0 518.8 178.5" style="enable-background:new 0 0 518.8 178.5" xml:space="preserve"><style>.st1,.st2{fill-rule:evenodd;clip-rule:evenodd;fill:#26201f}.st2{fill:none;stroke:#ed6c25;stroke-width:2;stroke-miterlimit:10}</style><path d="M87.8 25.4C96.6 11 112.2 1 130.3.1 159-1.4 183.5 20 186.1 48.3h-1.6c-6.1 0-11.1 5-11.1 11.1v28.5c-9.1 10.6-22.4 17.6-37.5 18.4-11.5.6-22.3-2.5-31.3-8.2-8-7.3-11.1 0-13 2.9-8.4 12.8-22.6 21.6-39.1 22.4C25 124.8 1.5 103.7.1 76.2c-1.4-27.5 19.7-51 47.2-52.4 8.5-.4 16.6 1.3 23.8 4.7 4.2 2 14.6.3 16.7-3.1" style="fill:#ed6c25"/><path class="st1" d="m224.9 156.3-2.4-6.5c-.3-.8-.9-1.2-1.9-.8-2.5.9-5.2 1.5-8.2 1.5-3.7 0-6.8-1.3-9.3-3.8-2.5-2.5-3.8-5.6-3.8-9.3V63.5c0-1.1-.4-1.5-1.5-1.5H191c-.9 0-1.5.4-1.5 1.5v73.8c0 6.4 2.3 11.8 6.6 16.2 4.5 4.4 9.8 6.6 16.2 6.6 3.6 0 7.6-.7 11.5-2 1.1-.4 1.4-1 1.1-1.8M274.3 127.4v-14.1c0-6.6-2.3-12.3-7-17-4.8-4.8-10.5-7.2-17.2-7.2-6.6 0-12.3 2.4-17.1 7-4.8 4.8-7.2 10.4-7.2 17.1v21.2c0 7.2 2.5 13.1 7.6 18.2 5 5 11 7.6 18 7.6 7.7 0 14.6-2.1 20.6-6.5.8-.5.9-1.3.4-2l-4-5.7c-.5-.7-1.2-.8-1.9-.3-4.5 3.2-9.5 4.8-15.1 4.8-4.4 0-8.1-1.6-11.3-4.8-3.1-3-4.6-6.8-4.6-11.3v-4.1c0-.9.5-1.5 1.5-1.5h36c.9 0 1.3-.5 1.3-1.4m-9.7-9.7c0 .9-.4 1.4-1.3 1.4h-26.4c-.9 0-1.5-.5-1.5-1.4v-4.5c0-4 1.5-7.4 4.4-10.3 2.8-2.9 6.2-4.2 10.2-4.2s7.4 1.3 10.3 4.2c2.9 2.9 4.2 6.3 4.2 10.3v4.5zM337.5 131.1v-16.7c0-7-2.5-13-7.6-18-4.9-5-11-7.4-18-7.4-5.8 0-11.1 1.9-16 5.7-.1.1-.4.3-.8.3-.9 0-1.5-.5-1.5-1.5V92c0-1.1-.4-1.5-1.5-1.5h-4.4c-.9 0-1.5.4-1.5 1.5v85c0 .9.5 1.5 1.5 1.5h6.9c.9 0 1.3-.5 1.3-1.5v-23.2c0-.9.5-1.3 1.5-1.3.5 0 .8.1 1.1.3 4 2.7 8.5 4 13.4 4 7 0 13.1-2.5 18-7.6 5.1-5.1 7.6-11 7.6-18.1m-9.6 0c0 4.4-1.6 8.1-4.6 11.2-3 3-6.9 4.6-11.3 4.6s-8.1-1.6-11.1-4.6c-3.2-3.2-4.8-6.9-4.8-11.2v-16.7c0-4.4 1.6-7.9 4.8-11.1 3.2-3.2 6.8-4.6 11.1-4.6 4.4 0 8 1.5 11.1 4.6 3.2 3.2 4.8 6.7 4.8 11.1v16.7z"/><path class="st2" d="M457.9 156.8V63.5c0-1.1-.4-1.5-1.3-1.5h-6.9c-.9 0-1.5.4-1.5 1.5V92c0 .8-.4 1.2-1.3 1.2-.5 0-.8-.1-1.1-.3-4-2.7-8.5-3.8-13.4-3.8-7 0-13.1 2.4-18 7.4-5 5-7.6 11-7.6 18v20.1c0 7 2.5 13 7.6 18 5 5 11 7.6 18 7.6 5.8 0 11.1-1.9 16-5.7.1-.3.4-.3.8-.3.9 0 1.5.4 1.5 1.5v1.2c0 .9.4 1.5 1.5 1.5h4.4c.9-.1 1.3-.7 1.3-1.6m-9.7-22.2c0 4.4-1.5 8.1-4.6 11.2-3.1 3-6.8 4.6-11.1 4.6-4.4 0-8.2-1.6-11.3-4.6-3-3.2-4.6-6.9-4.6-11.2v-20.1c0-4.4 1.6-8.1 4.6-11.1 3-3.2 6.9-4.6 11.3-4.6 4.2 0 8 1.5 11.1 4.6 3.2 3 4.6 6.7 4.6 11.1v20.1z"/><path class="st1" d="M518.8 156.8v-43.5c0-6.7-2.4-12.4-7.2-17.1-4.8-4.8-10.5-7.2-17.2-7.2-7.6 0-14.3 2.1-20.3 6.4-.9.5-.9 1.2-.4 2l4 5.5c.4.8 1.1.9 1.9.4 4.5-3.1 9.5-4.6 14.9-4.6 4.1 0 7.6 1.3 10.3 4.2 2.9 2.9 4.4 6.3 4.4 10.4v1.7c0 1.1-.4 1.2-1.3.7-4-2.8-8.5-4.1-13.4-4.1-6.8 0-12.5 2.4-17.2 7.2-4.6 4.8-7 10.5-7 17.1 0 6.8 2.4 12.5 7 17.2 4.8 4.8 10.5 7.2 17.2 7.2 4.8 0 9-1.3 12.7-3.7 1.9-1.2 2.9-1.9 2.9-1.9.9 0 1.5.5 1.5 1.5v.7c0 .9.5 1.5 1.5 1.5h4.4c.8-.1 1.3-.7 1.3-1.6m-9.7-20.9c0 4.1-1.5 7.4-4.4 10.3-2.9 2.9-6.2 4.4-10.3 4.4-4.1 0-7.4-1.5-10.3-4.4-2.9-2.9-4.2-6.2-4.2-10.3 0-4 1.3-7.4 4.2-10.3 2.9-2.9 6.4-4.2 10.3-4.2 4.1 0 7.6 1.5 10.3 4.2 3 2.9 4.4 6.3 4.4 10.3"/><path class="st2" d="M392.3 108.1c0-5.6-2-10.3-5.9-13.9-3.5-4-8.3-5.6-13.8-5.6-5.1 0-9.8 1.6-13.4 5.6-3.9 3.6-5.9 8.3-5.9 13.9 0 5.1 1.9 9.9 5.9 13.5 3.5 4 8.3 6 13.4 6 5.5 0 10.2-2 13.8-6 3.9-3.6 5.9-8.4 5.9-13.5"/><path d="M372.8 135.3c-13.4 0-24.2 10.9-24.2 24.2h48.5c0-13.3-10.9-24.2-24.3-24.2z" style="fill:none;stroke:#ed6c25;stroke-width:2;stroke-miterlimit:10"/></svg>