<svg width="130" height="20" xmlns="http://www.w3.org/2000/svg"><g fill-rule="nonzero" fill="none"><path d="M12.103 9.897A2.347 2.347 0 0 1 9.76 12.24a2.347 2.347 0 0 1-2.345-2.344 2.347 2.347 0 0 1 2.345-2.345 2.347 2.347 0 0 1 2.344 2.345" fill="#632D4F"/><path d="M10.103 13.483v1.069c2.31-.138 4.173-2 4.31-4.31h-1.068c-.138 1.689-1.517 3.068-3.242 3.24" fill="#000"/><path d="M6.207 9.897A3.606 3.606 0 0 1 9.793 6.31c1.862 0 3.414 1.414 3.552 3.242h1.069a4.634 4.634 0 0 0-4.62-4.31 4.658 4.658 0 0 0-4.656 4.655c0 2.448 1.896 4.482 4.31 4.62v-1.069c-1.827-.138-3.241-1.69-3.241-3.551" fill="#000"/><path d="M1.069 9.897c0-4.794 3.897-8.69 8.69-8.69 4.69 0 8.517 3.724 8.69 8.38h1.068C19.38 4.24 15.07 0 9.793 0 4.38 0 0 4.448 0 9.897c0 5.344 4.207 9.724 9.483 9.896v-1.207c-4.69-.138-8.414-4-8.414-8.69" fill="#000"/><path d="M10.103 18.586v1.207c5.173-.172 9.31-4.38 9.449-9.586h-1.07c-.172 4.552-3.827 8.241-8.379 8.38" fill="#000"/><path d="M10.103 16.897v1.069c4.207-.173 7.587-3.552 7.725-7.76h-1.07c-.137 3.622-3.034 6.518-6.655 6.69" fill="#000"/><path d="M2.793 9.897a7.005 7.005 0 0 1 14-.345h1.07c-.208-4.276-3.725-7.724-8.07-7.724-4.448 0-8.069 3.62-8.069 8.069 0 4.344 3.448 7.896 7.759 8.034v-1.034c-3.724-.173-6.69-3.242-6.69-7" fill="#000"/><path d="M4.483 9.897A5.276 5.276 0 0 1 9.759 4.62c2.793 0 5.103 2.207 5.275 4.965h1.07c-.173-3.345-2.932-6.034-6.345-6.034-3.483 0-6.31 2.827-6.31 6.345 0 3.413 2.689 6.172 6.034 6.344v-1.069c-2.793-.172-5-2.448-5-5.275" fill="#000"/><path d="M10.103 15.172v1.07a6.354 6.354 0 0 0 6.035-6.035h-1.069c-.172 2.655-2.31 4.827-4.966 4.965" fill="#000"/><path d="M114.862 2.138h7.62c5.035 0 6.794 3.724 6.794 7.517 0 4.62-2.448 7.552-7.724 7.552h-6.724V2.137h.034Zm4.655 11.207h1.828c2.896 0 3.31-2.345 3.31-3.759 0-.965-.31-3.586-3.655-3.586h-1.483v7.345Z" fill="#632D4F"/><path fill="#000" d="M21.655 2.207h4.035l5.207 9.241h.034V2.207h3.69v15h-4.035L25.38 7.862h-.034v9.345h-3.69zM36.276 9.655c.069-1.414.724-2.345 1.69-2.93.965-.553 2.24-.76 3.448-.76 2.586 0 5.069.552 5.069 3.656v4.758c0 .931 0 1.931.414 2.793H43.31c-.138-.344-.172-.655-.207-1.034-.93.965-2.275 1.345-3.586 1.345-2.069 0-3.724-1.035-3.724-3.31 0-3.552 3.862-3.276 6.345-3.794.62-.138.931-.345.931-1 0-.827-1-1.138-1.724-1.138-1 0-1.62.449-1.793 1.38h-3.276v.034Zm4.62 5.655c1.69 0 2.276-.965 2.173-3.207-.517.31-1.414.38-2.207.587-.793.172-1.483.517-1.483 1.379.035.897.724 1.241 1.518 1.241ZM48.172 6.31h3.449v1.483h.034C52.31 6.69 53.448 6 54.793 6c1.38 0 2.586.448 3.173 1.759C58.828 6.62 59.896 6 61.379 6c3.449 0 3.828 2.62 3.828 4.69v6.517h-3.552v-6.414c0-1.172-.552-1.862-1.483-1.862-1.517 0-1.69 1.172-1.69 2.931v5.345h-3.585V11c0-1.276-.38-2.069-1.345-2.069-1.276 0-1.828.724-1.828 2.966v5.31h-3.586V6.31h.034ZM70.62 4.931h-3.586V2.207h3.587V4.93Zm-3.551 1.38h3.586v10.896H67.07V6.31ZM72.586 6.31h3.448v1.897h.035c.517-1.38 1.759-2.138 3.276-2.138.276 0 .552.034.827.069v3.241a4.608 4.608 0 0 0-1.379-.207c-1.759 0-2.69 1.207-2.69 2.587v5.379h-3.586V6.31h.07ZM84.414 4.931h-3.586V2.207h3.586V4.93Zm-3.586 1.38h3.586v10.896h-3.586V6.31ZM86.103 9.655c.07-1.414.725-2.345 1.69-2.93.966-.553 2.241-.76 3.448-.76 2.587 0 5.07.552 5.07 3.656v4.758c0 .931 0 1.931.413 2.793h-3.586c-.138-.344-.172-.655-.207-1.034-.931.965-2.276 1.345-3.586 1.345-2.07 0-3.724-1.035-3.724-3.31 0-3.552 3.862-3.276 6.345-3.794.62-.138.93-.345.93-1 0-.827-1-1.138-1.724-1.138-1 0-1.62.449-1.793 1.38h-3.276v.034Zm4.621 5.655c1.69 0 2.276-.965 2.173-3.207-.518.31-1.414.38-2.207.587-.793.172-1.483.517-1.483 1.379 0 .897.69 1.241 1.517 1.241ZM98.138 2.207h3.586v15h-3.586z"/><path d="M108.276 10.38c-1.207 0-2.207-.414-3-1.242-.793-.828-1.173-1.828-1.173-3.035 0-1.206.38-2.24 1.173-3.034.793-.793 1.793-1.207 3-1.207s2.207.414 2.965 1.241c.759.828 1.138 1.828 1.138 3.035s-.379 2.207-1.138 3.034c-.758.794-1.758 1.207-2.965 1.207M103.483 17.207c0-1.414.448-2.586 1.345-3.517.896-.931 2.069-1.38 3.448-1.38 1.38 0 2.552.483 3.414 1.414.896.931 1.31 2.104 1.31 3.483" fill="#632D4F"/></g></svg>