<svg width="114" height="29" xmlns="http://www.w3.org/2000/svg"><g fill-rule="nonzero" fill="none"><g fill="#2864AE"><path d="M60.081 28.556v-5.015h1.535c.308 0 .546.034.751.103.205.068.375.17.546.307.341.307.546.716.546 1.16 0 .238-.034.477-.137.682-.102.205-.204.41-.375.546-.205.17-.443.307-.785.375l1.365 1.842h-1.126l-1.33-1.91v1.91h-.99zm.921-2.627h.58c.307 0 .512-.068.683-.238.136-.137.204-.307.204-.546 0-.24-.068-.41-.238-.546-.171-.137-.376-.205-.649-.205h-.614l.034 1.535zM65.95 28.556v-5.015h2.695v.853H66.87v1.228h1.705v.853h-1.705v1.194h1.774v.853h-2.696v.034zM73.08 26.85v-.852h3.275v.102c0 .444-.136.853-.375 1.262a2.34 2.34 0 0 1-.99.922c-.409.238-.852.34-1.296.34a2.58 2.58 0 0 1-1.33-.34c-.41-.24-.751-.546-.99-.956A2.586 2.586 0 0 1 71 26.032c0-.546.17-1.058.477-1.501.308-.41.683-.683 1.16-.887a2.738 2.738 0 0 1 1.024-.205c.341 0 .648.068.955.17.307.103.58.273.82.512.306.273.51.58.647.887h-1.091a1.698 1.698 0 0 0-.58-.512c-.24-.136-.478-.17-.751-.17-.512 0-.921.17-1.228.512-.137.17-.273.34-.341.58-.069.238-.137.443-.137.648 0 .341.102.682.307.99.17.272.444.477.75.613.205.103.444.137.717.137.307 0 .614-.068.853-.239.273-.17.478-.375.614-.682l-2.115-.034zM78.846 28.556v-5.015h.921v5.015h-.921zM82.19 27.124h.955c0 .204.068.375.204.477.137.137.273.17.478.17a.675.675 0 0 0 .478-.17.55.55 0 0 0 .204-.443.686.686 0 0 0-.136-.444c-.102-.102-.273-.205-.512-.307-.375-.136-.614-.239-.716-.273-.103-.068-.24-.136-.341-.239a1.389 1.389 0 0 1-.41-1.023c0-.376.137-.683.41-.956a1.419 1.419 0 0 1 1.057-.443c.205 0 .444.034.648.136.205.103.376.24.512.41.205.239.307.546.307.887h-.955a.565.565 0 0 0-.17-.41.513.513 0 0 0-.376-.136c-.17 0-.273.034-.375.136-.103.103-.137.205-.137.376 0 .17.069.307.205.41.102.067.307.17.648.306.376.137.683.273.853.478.307.273.444.648.444 1.058 0 .443-.137.818-.444 1.125a1.546 1.546 0 0 1-1.16.478c-.239 0-.477-.068-.716-.17-.24-.103-.41-.273-.58-.444a1.981 1.981 0 0 1-.376-.99zM88.467 28.556v-4.162h-.921v-.853h2.763v.853h-.92v4.128h-.922zM92.698 28.556v-5.015h2.695v.853h-1.774v1.228h1.706v.853h-1.706v1.194h1.774v.853h-2.695v.034zM97.986 28.556v-5.015h1.535c.307 0 .546.034.75.103.205.068.376.17.547.307.34.307.546.716.546 1.16 0 .238-.035.477-.137.682-.102.205-.205.41-.375.546-.205.17-.444.307-.785.375l1.365 1.842h-1.126l-1.33-1.91v1.91h-.99zm.921-2.627h.58c.307 0 .512-.068.682-.238.137-.137.205-.307.205-.546 0-.24-.068-.41-.239-.546-.17-.137-.375-.205-.648-.205h-.614l.034 1.535zM103.82 28.556v-.887h.887v.887zM107.436 28.556v-5.015h.922v5.015h-.922zM111.633 28.556v-4.162h-.921v-.853h2.763v.853h-.92v4.128h-.922v.034z"/></g><path d="M.102 13.476h1.945c.102 1.024.41 1.843.853 2.423.307.41.75.75 1.262.99a3.807 3.807 0 0 0 1.604.375c.478 0 .955-.103 1.467-.308a3.745 3.745 0 0 0 1.262-.852c.649-.683.99-1.502.99-2.457 0-1.058-.41-1.945-1.263-2.627-.58-.478-1.535-.887-2.831-1.228-.956-.24-1.672-.478-2.15-.683-.477-.238-.921-.511-1.296-.92C1.092 7.334.648 6.243.648 4.946c0-1.365.478-2.49 1.4-3.412.988-.99 2.25-1.5 3.718-1.5 1.433 0 2.627.477 3.582 1.432.956.955 1.467 2.115 1.467 3.514h-1.91c-.069-.99-.41-1.774-1.024-2.388-.614-.614-1.365-.921-2.286-.921-.853 0-1.57.273-2.15.853-.681.648-.989 1.433-.989 2.354s.273 1.603.853 2.115c.478.41 1.365.785 2.696 1.16 1.091.307 1.842.546 2.217.717.376.17.785.409 1.194.75a4.6 4.6 0 0 1 1.331 1.774c.307.717.478 1.433.478 2.184 0 1.399-.512 2.627-1.536 3.65-1.091 1.126-2.422 1.706-4.025 1.706a6.167 6.167 0 0 1-2.628-.58c-.818-.375-1.467-.955-1.978-1.637-.546-.922-.887-1.98-.956-3.242zM14.739 5.084h1.74v2.32c.512-.717 1.126-1.297 1.876-1.706a7.056 7.056 0 0 1 3.549-.922c.887 0 1.774.171 2.627.512.853.341 1.637.82 2.285 1.467C28.284 8.155 29 9.86 29 11.873c0 2.013-.75 3.719-2.286 5.118-1.399 1.296-3.07 1.91-4.947 1.91a6.805 6.805 0 0 1-3.002-.682c-.887-.444-1.638-1.126-2.218-1.979v7.062h-1.842V5.084h.034zm7.096 1.228c-1.467 0-2.763.546-3.82 1.603-1.024 1.058-1.57 2.32-1.57 3.821 0 1.706.546 3.071 1.671 4.129 1.024.99 2.286 1.467 3.72 1.467 1.398 0 2.626-.478 3.684-1.467 1.16-1.092 1.706-2.423 1.706-3.992 0-1.706-.58-3.07-1.774-4.162-.99-.922-2.218-1.4-3.617-1.4z" fill="#343434"/><path fill="#2864AE" d="M59.945 18.56V.375h1.842V18.56zM66.086 18.56V6.653h-2.832v-1.57h2.832V.376h1.74v4.709h3.207v1.535h-3.207v11.907h-1.74zM85.567 5.084V18.56h-1.74v-2.354c-1.33 1.808-3.07 2.695-5.288 2.695-1.33 0-2.593-.341-3.787-1.023a6.627 6.627 0 0 1-2.627-2.764c-.546-1.058-.853-2.15-.853-3.275 0-.887.17-1.74.512-2.593a7.591 7.591 0 0 1 1.398-2.252c.683-.716 1.502-1.262 2.457-1.672a7.51 7.51 0 0 1 2.866-.546c1.091 0 2.115.24 3.002.683.887.477 1.672 1.126 2.286 2.013V5.084h1.774zM78.54 6.312c-1.467 0-2.764.546-3.89 1.637-1.091 1.092-1.603 2.355-1.603 3.787 0 1.536.512 2.832 1.535 3.924a5.653 5.653 0 0 0 1.808 1.228 5.393 5.393 0 0 0 2.15.444c1.433 0 2.695-.546 3.753-1.638 1.023-1.058 1.535-2.354 1.535-3.855 0-1.535-.512-2.798-1.535-3.89-1.024-1.057-2.252-1.603-3.753-1.637zM88.979 18.56V.375h1.74V18.56zM94.13 2.115V.375h1.74v1.74h-1.74zm0 16.445V5.084h1.74V18.56h-1.74zM113.544 5.084V18.56h-1.74v-2.354c-1.331 1.808-3.071 2.695-5.289 2.695-1.33 0-2.593-.341-3.787-1.023a6.627 6.627 0 0 1-2.627-2.764c-.546-1.058-.853-2.15-.853-3.275 0-.887.17-1.74.512-2.593a7.591 7.591 0 0 1 1.399-2.252c.682-.716 1.501-1.262 2.456-1.672a7.51 7.51 0 0 1 2.866-.546c1.092 0 2.115.24 3.003.683.887.477 1.671 1.126 2.285 2.013V5.084h1.775zm-7.029 1.228c-1.467 0-2.763.546-3.89 1.637-1.09 1.092-1.603 2.355-1.603 3.787 0 1.536.512 2.832 1.536 3.924a5.653 5.653 0 0 0 1.808 1.228 5.393 5.393 0 0 0 2.15.444c1.432 0 2.695-.546 3.752-1.638 1.024-1.058 1.536-2.354 1.536-3.855 0-1.535-.512-2.798-1.536-3.89-1.023-1.057-2.286-1.603-3.753-1.637zM32.412 23.541h23.814v4.981H32.412z"/><path d="M53.019.375v5.63a6.887 6.887 0 0 0-3.958-1.229C45.171 4.776 42 7.95 42 11.84c0 3.89 3.173 7.062 7.062 7.062a6.887 6.887 0 0 0 3.958-1.228v.887h3.105V.375h-3.105zM49.06 15.762a3.924 3.924 0 1 1 3.924-3.923c0 2.15-1.774 3.923-3.924 3.923z" fill="#343434"/><g transform="translate(32.412)" fill="#343434"><circle cx="3.071" cy="3.105" r="3.071"/><path d="M3.07 7.915A3.058 3.058 0 0 0 0 10.985v7.575h6.175v-7.574c0-1.706-1.399-3.07-3.104-3.07z"/></g></g></svg>