<svg xmlns="http://www.w3.org/2000/svg" width="210mm" height="297mm" viewBox="0 0 210 297"><g style="fill:#000;fill-rule:evenodd;stroke:none;stroke-width:1"><g style="fill:#000;fill-rule:nonzero"><path d="M155.106 236c-33.726 0-61.509-11.284-83.348-34.127C49.92 179.167 39 150.957 39 117.38c0-33.715 10.92-61.65 32.62-83.942C93.32 11.146 120.965 0 154.83 0c33.725 0 61.231 11.284 82.38 34.265C258.356 57.108 269 85.18 269 118.895c0 33.439-10.643 61.373-31.79 83.666C216.06 224.716 188.831 236 155.105 236M0 393.345c0-36.864 14.623-67.408 43.498-91.783C72.558 277.188 109.577 265 155.296 265c45.163 0 81.997 12.338 110.132 37.465C293.748 327.593 308 358.287 308 395" style="fill:#000" transform="matrix(.68428 0 0 .74878 .605 1.253)"/></g></g></svg>