<svg version="1.1" id="Layer_1" xmlns="http://www.w3.org/2000/svg" x="0" y="0" viewBox="44 -43.6 587.6 587.6" style="enable-background:new 44 -43.6 587.6 587.6" xml:space="preserve"><style>.st1{opacity:.7;fill:#fff;enable-background:new}</style><path id="XMLID_3_" d="M631.6 250.2c0 162.3-131.5 293.8-293.8 293.8C175.6 544 44 412.5 44 250.2S175.6-43.6 337.8-43.6c162.3 0 293.8 131.5 293.8 293.8" style="opacity:.5;fill:#ccc;enable-background:new"/><path id="XMLID_2_" class="st1" d="M338.6 275.4c-24.4 0-44.5-8.2-60.3-24.8-15.8-16.5-23.7-37-23.7-61.4 0-24.5 7.9-44.8 23.6-61s35.7-24.3 60.2-24.3c24.4 0 44.3 8.2 59.6 24.9 15.3 16.6 23 37 23 61.5 0 24.3-7.7 44.6-23 60.8-15.3 16.1-35 24.3-59.4 24.3"/><path id="XMLID_1_" class="st1" d="M254.6 395.5c0-24.5 7.9-44.8 23.5-61 15.7-16.2 35.7-24.3 60.4-24.3 24.4 0 44.3 8.2 59.5 24.9 15.3 16.7 23 37.1 23 61.5"/></svg>