<svg xmlns="http://www.w3.org/2000/svg" width="1273" height="250" xml:space="preserve"><g fill="#FFF"><path d="M182.7 13c-.7 1.1-2.2 2-3.3 2-4.4 0-5.9 4.6-2.7 7.8 1 1 1.6 2.4 1.4 3-.6 2 1.7 4.1 5.5 4.8 1.9.4 4.5 1.7 5.8 3 1.5 1.4 3.6 2.4 5.3 2.4 1.7 0 3.2.6 3.6 1.5.3.8 1.2 1.5 2 1.5.9 0 2.2 1.3 3.1 2.9.8 1.6 2 3.1 2.6 3.3.7.2.2 1.5-1.4 3.3l-2.5 3-3.6-1.8c-3.2-1.5-3.6-2.1-3.6-5.5 0-3.6-.2-4-3.9-5-5.6-1.7-6.9-1.5-8.5 1.6-1.3 2.4-1.9 2.8-5 2.4-4-.5-5.3-1.6-5.8-5.2-.3-2.3-.8-2.5-5.9-2.8l-5.7-.3-.9 3.8c-.8 3.5-1.2 3.8-5 4.4-3.9.5-4.3.3-5.4-2.4-1.1-2.5-1.6-2.8-4.3-2.4-1.7.3-4 .8-5.1 1.2s.9-.9 4.4-2.9 7.5-4.6 8.9-5.8c4.9-4.6 6.5-10.8 2.8-10.8-1.2 0-1.4-.7-1-3 .6-2.5.3-3-1.9-3.5-7.1-1.8-21.4 4.5-30.9 13.5-3.2 3.1-5.6 4.9-5.2 4.1.4-.9.9-3.1 1.2-4.9.4-2.9.2-3.2-2.3-3.2-4 0-13.2 9.8-18 19.2-2.2 4.3-4.3 7.8-4.7 7.8-.4 0-.8-1-1-2.2-.6-4.2-3.5-3.2-8.3 2.9-10.2 12.9-15.1 28.7-14.3 46.2.5 10.4 2.6 17.7 6.4 22.8 2.5 3.3 3.7 5.9 4.8 10.8.4 1.6-1.2-.8-3.6-5.5-4.7-9.3-8.3-12.5-11.2-10.1-3.8 3.2-.8 23.8 5.3 35.9 5.7 11.4 19.3 26 24.3 26.3.7 0 3.7 3.1 6.6 7 2.9 3.8 5.9 6.9 6.6 6.9.8 0 1.9.7 2.6 1.5s2.2 1.5 3.4 1.5c1.2 0 3.5 1.3 5 2.9 2.3 2.4 2.7 3.5 2.1 6-.6 2.8-1 3-5.8 3.3-4.7.3-5.8-.1-11.8-4.2-6.3-4.2-6.7-4.8-7.2-8.9-.3-2.5-.1-5.6.4-6.9 1.3-3.3.4-5.7-2.7-7-3.9-1.8-5.4-1.5-5.4 1.2 0 3-1.6 3.6-9.1 3.6-5.4 0-5.9.2-6.5 2.4-.3 1.4-.3 3 .1 3.6.3.5-.5 3.5-1.9 6.6-1.4 3.1-2.6 6.4-2.6 7.4 0 5.4 31.2 25.9 40.8 26.7 2.6.2 8.9-.2 14-1 5-.7 9.2-1.2 9.2-1.1 0 .8-4.9 3.5-7 3.9-3 .6-3.3 1-2.6 3.7.8 3.3 7.7 7.8 11.8 7.8 2.7 0 4-.9 7.7-5.1 2.4-2.8 5.9-5.8 7.7-6.5 1.9-.8 4.1-2.6 5-3.9 2.6-3.9 4.9-4.8 9-3.3 2.7 1 4.1 1 6.6 0 2.9-1.1 3.6-.9 7 1.5 2.2 1.4 6.1 4.7 8.8 7.2 7.7 7.2 10.2 9.1 11.7 9.1.7 0 3.6-1.1 6.3-2.5 5.5-2.8 6.7-5.9 2.8-7-2.8-.9-9-4.6-8.5-5.1.2-.2 6.6.3 14.3 1.1 7.6.8 14.8 1.5 16 1.5 2.6 0 27.8-17.7 32.2-22.7 3.8-4.3 3.9-5.1 1.2-9.6-1.2-1.9-2.3-5.8-2.7-8.6-.3-2.8-1.1-5.5-1.7-5.8-.6-.4-3.8-.8-7.1-.8-5.6-.1-6-.2-6.4-2.5-.1-1.4-.7-2.7-1.2-3-.4-.3 1.4-1.6 4.1-2.9 3.6-1.7 5-2.9 5-4.4 0-1.2 1.8-4 4.1-6.3 2.7-2.8 4.2-5.2 4.4-7.3.1-1.7.7-3.6 1.2-4.3 2.4-3 4.3-7.9 4.3-11.1 0-2 .7-4.1 1.8-5.1 1.6-1.4 1.9-3.2 2-11.3 0-5.3-.4-10.8-.9-12.1-.8-2.2-1.4-2.4-4.8-1.8-2.2.3-4.8.9-5.8 1.2-1.3.5-1.2.2.5-1 1.3-1 2.2-2.8 2.2-4.4 0-1.5 1.3-5.3 2.9-8.6 2.6-5.2 3.1-8.6 1.2-8.6-.4 0-.5-1.8-.3-3.9.2-2.1-.2-4.9-.9-6.2-1.8-3.3-4.8-12-4.9-14.1 0-.9-.6-2.3-1.3-3-.7-.7-2.2-3.1-3.3-5.3-1-2.2-2.9-4.5-4.2-5.1-1.2-.6-3.3-2.1-4.6-3.3-1.2-1.1-2.9-2.1-3.8-2.1-1 0-2.4-2.2-3.8-6-1.8-4.8-2.7-6-4.4-6-1.5 0-2.5-.9-3.3-3-.9-2.4-1.7-3-4-3-1.5 0-4.6-.9-6.7-2.1-2.1-1.1-4.4-1.8-5.2-1.5-.7.3-1.6-.4-1.9-1.5-.4-1-1.5-1.9-2.7-1.9-1.1 0-4.3-1.8-7-4-3.1-2.5-6.1-4-7.8-4-1.5 0-4.7-.7-7-1.5-5.2-1.8-4.7-1.9-6.2.5zm7.6 3.5c1.5.8 3.8 1.2 5 .9 1.7-.4 3.5.6 7.4 4.1 2.8 2.6 5.6 4.4 6.1 4.1.5-.4 1.2-.2 1.5.3.3.5-.8 1.1-2.5 1.3-3.4.5-5-.6-7.6-5.5-1.3-2.4-1.8-2.8-2.1-1.5-.2.9.2 2.7.9 4l1.2 2.2-2.8-1.8c-1.6-1.1-4-3.2-5.3-4.7-2.8-3.4-4.6-3.8-3.7-.8.6 1.8.5 1.9-1.3 1-2.4-1.3-6.2-1.5-6.2-.3 0 .4 2 1.3 4.6 2 5.1 1.4 5 3.2-.2 3.2-1.9 0-3.3-.4-3-.9.3-.5-.6-1.6-1.9-2.5-3.3-2.1-2.4-3.6 2.2-3.6 2.7 0 3.4-.3 2.9-1.5-.7-1.9 1.1-1.9 4.8 0zm-40 1.9c-.8 1.4-2.8 2.8-4.4 3.1-3 .7-13.3 6.9-18.3 11.1-1.6 1.3-3.3 2.4-4 2.4-1.5 0 9.9-8.7 16-12.2 5.4-3 7.3-4.8 5.3-4.8-1.8 0-9.1 4-16 8.7-4.5 3.2-5.8 3.7-4.1 1.9 5.3-5.7 18.8-12.5 24.9-12.6 2.2 0 2.2.1.6 2.4zm3.4 5.4c.6 2-5.9 7.1-15.3 11.8-10.1 5.1-9 3.8 3.2-3.9 4.6-2.9 8.3-5.5 8.3-6 0-1.9-4.2-.3-11.3 4.3-9.1 5.9-9.4 4.9-.4-1.2 6.1-4.1 12.3-7 14.1-6.4.6.1 1.2.8 1.4 1.4zm41.6 3.3 2.5 1.2-2.2 1.9-2.2 2 2.5-.7c6.8-1.8 8-1.8 8 .3 0 1.1.3 2.7.6 3.5.4 1.2 0 1.4-1.5 1-1.2-.3-2.1-1.2-2.1-1.9 0-.9-1.1-1.4-2.9-1.4-4 0-7.6-2.1-7.8-4.8-.3-2.5 1.2-2.8 5.1-1.1zm-84 8.1c-1.5 4-4.6 10.2-6.7 13.8-3.8 6.4-12.5 19-13.1 19-.4 0 12.4-24.6 15.3-29.3 2.6-4.2 1.9-4.8-1.8-1.5-2.2 2-2.3 2-1.1.3 2.3-3.3 9.3-10.5 9.8-10 .2.2-.8 3.7-2.4 7.7zm76.3-7.6c-.3.3-1.2.4-1.9.1-.8-.3-.5-.6.6-.6 1.1-.1 1.7.2 1.3.5zm25.1 3.7c.6 0 1.2.6 1.2 1.4 0 1.1-.4 1.1-2.1.3-3-1.7-3.6-.4-1.1 2.3 2.3 2.5 2 3.7-.9 3.7-1.2 0-1.6-.5-1.3-1.5.4-.8.1-2.2-.6-3-1.7-2.1-.5-4.9 1.8-4 .9.4 2.3.8 3 .8zm12.2 1c1.9.2 2.8 1.1 4 4.4 1.9 5.1 2.6 5.9 4.2 4.5 2-1.6 5.3 5.8 4.2 9.5-.8 2.6-.9 2.4-1.2-2-.3-5-2.2-6.7-2.2-2v2.8l-3-3c-1.9-2-3.1-4.3-3.4-6.9-.6-5-1.6-5.9-1.6-1.5-.1 3.3-.1 3.4-1.8 1.3-.9-1.1-2.5-3.1-3.4-4.5-1.3-1.8-1.7-2-1.7-.7-.1.9 1.5 3.8 3.5 6.4 3.3 4.3 3.4 4.6 1.3 4-6.3-1.7-6.9-1.8-6.9-.7 0 .5 1.9 1.5 4.3 2.1 6.5 1.7 8.3 2.6 10.5 5.8l2.1 2.9-5.2-1.2c-2.9-.7-6-1.6-6.9-2-1-.4-1.8-.3-1.8.3s3.3 2.1 7.3 3.4c6.6 2.1 7.2 2.5 7.5 5.3l.4 3-2.9-2.6c-3.6-3.4-6.8-5-8.5-4.4-1.5.6-5.8-2.9-5.8-4.6 0-.6.9-1.3 2-1.6 2.5-.7 2.6-2 .2-2.7-1.1-.4-2.9-1.7-4.1-3l-2.3-2.4 2.1-1.1c1.6-.9 1.9-1.8 1.5-4.1-.9-4.3.2-6.4 2.9-5.5 1.2.4 3.3.8 4.7.8zm-55 9.2c.5 2.8.9 3.1 6.4 3.9 6 .9 7.6.2 8.9-3.7.2-.8 1.4-.8 3.8-.1 3.1.9 3.4 1.2 3.1 4.5-.3 3.4-.1 3.7 4.9 6.3l5.2 2.7 2.3-2.2c1.5-1.4 2.9-1.9 4.2-1.5 3.5 1.1 4.3 2.9 3 6.4-1.2 3-1 3.4 2.7 7.2 2.2 2.2 4.5 3.8 5.2 3.6 1.6-.7 1.7.6.2 2.1-.8.8-.7 1.9.4 4.2.9 1.7 1.1 3.1.6 3.1s-.9 1.1-.9 2.5c0 1.9 1.1 3.2 4.8 5.4 5.4 3.4 8.5 8 8.8 13.3.4 7.9 1.3 9.7 5 10.4 3.3.6 3.5.8 3.2 4.3-.2 2.9-.7 3.7-2.6 3.9-1.5.2-2.9-.4-3.8-1.6-1.5-2.1-7.9-2.8-10-1.1-.8.7-1.3-.6-1.8-4.1-.4-2.7-.8-5-1.1-5-.2 0-5.4 1.8-11.6 4-6.1 2.2-11.4 3.9-11.6 3.6-.2-.2 4.5-4.2 10.6-8.8 12.9-9.8 13.1-9.4-6.9-9.8l-12.5-.2 12-3.4c6.6-1.9 12.6-3.6 13.3-3.9 1-.4.8-1.5-1-4.6-5.3-9.6-18.4-19.9-30-23.8-9.7-3.3-9.1-4.1-8.6 11.9.2 7.7.4 14 .3 14s-2.4-6.2-5-13.8c-2.6-7.5-5.1-14.1-5.5-14.5-.4-.5-3 5.6-5.9 13.5l-5.1 14.3.6-13.8c.8-15.9 1.3-15.2-9.7-11.3-7.9 2.7-15.8 7.9-21.6 13.8-4.1 4.3-9.3 11.4-9.3 12.8 0 .4 6 2.5 13.3 4.6l13.2 3.9-14.7.5c-8.1.3-15 .8-15.3 1.2-.3.3 4.3 4.3 10.4 8.9 6 4.6 10.9 8.5 10.7 8.6-.2.3-13.2-4.4-22.8-8.2-1.4-.6-1.8-.2-1.8 1.8 0 1.5-1.2 3.8-2.9 5.5-1.6 1.6-3.4 4.7-4 6.9-.6 2.2-1.8 4.6-2.6 5.3-1.3 1.1-1.5.7-1.5-2.3 0-3.6-1.2-4.7-5.1-4.7-1.5 0-1.9-.7-1.9-4 0-3.7.2-4 3.4-4.5 3.3-.7 3.4-.8 4-6.6.6-5.1 1.4-6.9 6.2-13.2 6.7-8.8 11.4-18 12.1-23.8.6-4.8 5.8-14.9 7.6-14.9.6 0 2.1.9 3.3 2.1l2.2 2 5.1-2.5c4.8-2.5 5.1-2.9 5.1-6.4s.3-4 3.4-4.9c3.3-1 3.5-.9 4.6 1.8 1.3 3.1 2.1 3.3 9.3 2.3 4.2-.6 4.6-.9 5.2-4.1.6-3.2.8-3.4 4.3-3.1 3.2.3 3.8.7 4.2 3.3zm38.9-.5c.9 0 2.3 1.4 3.1 3.2.7 1.8 1.5 3.6 1.8 4 .6 1.2-3.6.9-4.3-.2-.3-.6-.1-1 .4-1 1.9 0 1.2-2.2-1.4-4.2-1.4-1.1-2.5-2.5-2.4-3.1 0-.8.2-.8.6 0 .2.7 1.2 1.3 2.2 1.3zm-72.2 3c.1 3.7-.2 4.2-3.7 6l-3.7 1.9-2.8-2.9-2.8-2.9 6.4-3c3.5-1.6 6.4-3 6.4-3 0-.1.1 1.7.2 3.9zm-18.2 6.9c-2.9 6.1-4.3 8.1-6.2 8.6-1.4.3-2.7.5-2.8.3-.2-.2 2.4-4.5 5.8-9.7 3.4-5.2 6.3-8.9 6.5-8.2.2.6-1.3 4.7-3.3 9zm-5.2-2.2c-5.8 8.5-7.3 10.1-4.3 4.6 2.2-4.1 7.7-11.3 8.5-11.3.3 0-1.7 3-4.2 6.7zM86.8 66.3c-9.8 36.2-9.9 36.4-9.3 30.2.9-10.4 3.3-23.4 5.4-29.3 2.3-6.5 2.3-6.2 1.1-6.2-1.4 0-5.9 11.5-7.5 19.4-.9 4.1-1.9 12.1-2.3 17.8-.6 9.2-.8 9.9-1.6 6.3-1.2-5.4-.2-21.6 1.8-29 2-7.7 5.6-15 10.3-21.1l3.7-4.9.3 4.3c.2 2.3-.7 8-1.9 12.5zm159.5-11.8c1 1.5 2.4 2.4 3.1 2.1 1.5-.5 4.5 4.9 4.5 8.3 0 1.4.5 1.9 1.5 1.5 1.6-.7 2.2 2.1.6 3-.4.3-1.2 2-1.6 3.8l-.7 3.3-1.5-3.5c-.9-1.9-1.5-5.6-1.4-8.3.1-4.5-1.4-6.6-2.1-3-.2 1.1-1 0-2.1-3-1.8-4.5-4.5-6.9-3.2-2.7.5 1.5.3 1.8-.9 1.4-2.4-.9-1.9.9.8 3.5 1.4 1.3 2.9 3.7 3.5 5.2 1 2.9 1 2.9-1.2 1.4-4.4-3.1-5.1-1.4-.8 2.2 2.4 2 5 5.2 5.8 7.1 1.6 3.9 1.1 5.4-.9 2.3-1.3-2.1-2.8-2.8-2.8-1.3 0 .5 1.5 2.6 3.3 4.8 1.9 2.1 3.6 4.9 3.9 6.1l.6 2.2-2.9-2.1c-1.7-1.3-2.9-3.1-2.9-4.4 0-1.2-.6-2.4-1.4-2.7-1-.4-1.6-2.4-1.8-5.4-.3-4.1-.6-4.8-2.5-5.1-1.3-.2-2.3-1-2.3-1.8s-.7-2.9-1.6-4.6c-1.3-2.5-1.4-3.6-.5-5 .6-1 1.1-2.9 1.1-4.2 0-6.1 2.8-6.6 6.4-1.1zm-24.4 7.1c0 .5-.6 1.8-1.3 2.8-1.1 1.6-1.5 1.5-4.1-1.3-2-2.1-2.6-3.5-2.1-5l.6-2 3.4 2.2c1.9 1.2 3.5 2.7 3.5 3.3zm-69.5 15.8C152 86.5 151.3 94 151 94c-.9 0-31.3-8.9-31.7-9.3-1-.9 8.7-11.4 14.2-15.3 5.8-4.1 18.2-9.8 19.3-8.9.2.2 0 7.8-.4 16.9zm78.5-11.9c0 3.2-.7 3.1-3.2 0-1.1-1.4-2.3-2.3-2.8-2-.4.3-.6-.4-.3-1.5.5-1.8.7-1.8 3.4-.4 2 1 2.9 2.2 2.9 3.9zm-40.9-.8c5.3 2.6 9.5 5.7 14.7 10.9 3.9 4.1 7.2 8 7.2 8.7 0 1.5-30.7 10.4-31.8 9.2-.3-.3-.8-7.8-1-16.5-.5-18.8-1-18.2 10.9-12.3zm-77.6 1.5c-.8 3.7-7.8 17.5-10.1 19.8-.9.8.3-1.7 2.5-5.6 4.3-7.5 4.7-8.4 3.2-8.4-1.1 0-13.9 19.6-17.5 26.8-4.7 9.4-3.9 4.8 1.1-6.4C98.5 76.9 108.3 63 112.2 63c.5 0 .6 1.5.2 3.2zm59 13.9c3 8.4 5.5 15.8 5.5 16.4s6.7 1.1 17.7 1.3c9.8.2 17.9.5 18 .6.5.4-25.8 20.1-27.2 20.4-1.8.4-1.8.7-.5 3 1.1 1.8 10.1 31.4 9.7 31.9-.3.3-25.3-17-27.7-19.2-1.6-1.4-1.8-1.4-3 0-1.1 1.3-22.5 16.4-26.6 18.8-.9.5 6.5-26 8.9-32.3.4-1-.7-2.4-3.6-4.2-2.3-1.5-8.9-6.3-14.6-10.8l-10.4-8 13.4-.2c7.4-.2 15.5-.3 18.1-.2h4.7l5.7-16.8c3.2-9.2 5.9-16.6 6.1-16.4.2.1 2.8 7.2 5.8 15.7zM237.9 70c0 1-.7 3.6-1.5 5.9-1.6 4.7-1.2 5.1 2.1 1.6 1.3-1.4 2.8-2.5 3.4-2.5 1.6 0 1.2 6.3-.6 8.9-2.3 3.3-3.7.7-1.8-3.2 2.4-4.5.9-4.3-2.2.3l-2.8 4.1-1.4-3.5c-1.2-3.1-1.2-3.9.7-8.2 2.4-5.3 2.4-5.4 1.2-5.4-.5 0-1.3 1-1.6 2.1-.5 1.6-.9 1.8-1.5.9-1.2-1.9 3.1-5.2 4.8-3.8.6.6 1.2 1.8 1.2 2.8zm-11.7-2.3c.2.5.7 2 1.1 3.5.6 2.5.4 2.7-2.4 2.5-2.9-.2-4.4-2.7-1.6-2.7.9 0 1.2-.7.9-2-.5-1.9 1.1-2.9 2-1.3zm32.2 12c-.4 2.7-.2 4.3.4 4.3.7 0 .6.9-.2 2.7l-1.2 2.6-1.3-4.4c-1-3.5-1-5.5-.1-9.4 1.1-4.5 1.3-4.7 2.1-2.5.5 1.4.7 4.4.3 6.7zM224.9 76c0 .5-.2 1-.4 1-.3 0-.8-.5-1.1-1-.3-.6-.1-1 .4-1 .6 0 1.1.4 1.1 1zm4.8 4.5c-.3.3-.9-.2-1.2-1.2-.6-1.4-.5-1.5.5-.6.7.7 1 1.5.7 1.8zm-4.6.2c-.6.3-.9 1-.5 1.6.4.7-.1.5-1.1-.3-1.7-1.3-1.7-1.4.1-2.1 1-.3 2-.4 2.3-.1.3.2-.1.7-.8.9zm36.6 6.9c-1.4 1.5-1.6 1.3-1.3-1.7.5-4.7.5-4.7 1.7-2.1.9 1.8.8 2.6-.4 3.8zm-14.8-1.5c0 .7 1.7 2.7 3.8 4.6 2.6 2.5 2.2 2.3-1.5-.7-5.7-4.5-6.1-5-3.8-5 .8 0 1.5.5 1.5 1.1zm-13.6 2.5c.3.8.2 1.2-.4.9s-1-1-1-1.6c0-1.4.7-1.1 1.4.7zm4.9 2.4c.3 1.1.2 1.8-.3 1.5-.4-.3-1-1.4-1.3-2.5-.3-1.1-.2-1.8.3-1.5.4.3 1 1.4 1.3 2.5zm3.4.2c-.3.8-.6.5-.6-.6-.1-1.1.2-1.7.5-1.3.3.3.4 1.2.1 1.9zm17.8.8c-.5 1.6-.2 2 1.4 2 2.5 0 2.6.2.4 4.3l-1.7 3.2-.7-4.5c-.6-4.2-.3-7 .8-7 .2 0 .1.9-.2 2zm-12.1 3.4c.4 1.9 1.8 5 3.1 7 1.4 2 2.5 4.6 2.5 5.6 0 2.3 1 2.6 2.8.8.7-.7 1.2-.8 1.2-.3 0 .6-1.1 2-2.4 3.2l-2.3 2.3-.6-4.6c-.2-2.6-1-5-1.6-5.3-1.4-.9-5.3-12.1-4.2-12.1.5 0 1.2 1.5 1.5 3.4zm9.6 4.8c0 1.7-.3 1.6-2.7-.7-2.4-2.1-2.6-2.7-1.3-3.5 1.8-1.1 4 1.3 4 4.2zm-17 6.4c0 .2-.7.4-1.5.4s-1.5-.6-1.5-1.4c0-.7-.3-2.9-.6-4.7-.5-3.3-.5-3.2 1.5 1 1.2 2.4 2.1 4.5 2.1 4.7zm2.6-6.6c.8 0 1.4.9 1.4 2s-.4 2-1 2c-1.1 0-3-3.3-2.9-5.2 0-1 .2-1 .6-.1.2.7 1.1 1.3 1.9 1.3zm-148 4.5c-.4 1.4-1.5 2.4-3 2.7-2.5.5-2.5.5-.9-2.6.8-1.7 2.1-3.7 2.7-4.5.9-1.2 1.2-1.1 1.4.3.2 1 .1 2.8-.2 4.1zm153.4 5.2c-.1 2.7-.1 2.7-1.5.9-1.4-1.9-1.2-3.6.6-3.6.5 0 .9 1.2.9 2.7zm-105.5 11.5c.1.2-4.1 6.5-9.3 14.1l-9.6 13.9-1.8-2.4c-4.9-6.1-7.2-12.2-6.9-18.1.3-7.3-.6-11.7-2.5-11.7-1 0-1.4-1.2-1.4-3.9v-3.9l15.6 5.9c8.6 3.2 15.7 5.9 15.9 6.1zm78.2-5.5c-.3 3.2-1.1 8-1.6 10.8-1.3 6-7.2 18.4-10 20.9-1.9 1.7-2.2 1.5-11.1-11.9-5-7.5-8.9-13.9-8.6-14.2.6-.7 29.7-11.2 31-11.2.4-.1.6 2.5.3 5.6zM89.4 120c3.3 0 5.5 2.6 5.5 6.5 0 2.7-.5 3.5-3.1 4.5-3.8 1.6-4.6.8-6.3-5.6-.9-3.6-1-5.9-.2-8.9l1.1-4 .3 3.7c.3 3.2.7 3.8 2.7 3.8zm18.8 13.5c.1 10.1-.2 15.3-1.3 18.5l-1.5 4.5-.3-6c-.2-3.3 0-13 .4-21.5.9-19.4 2.5-16.7 2.7 4.5zm139.3-9.4c-.9 9.5-2.1 10.5-7.7 7.2-2.5-1.5-2.9-2.4-2.9-5.9 0-4.3 1-5.4 5.1-5.4 1.5 0 1.9-.7 1.9-3.3l.1-3.2 2 2.5c1.8 2.1 2 3.4 1.5 8.1zm18.9-7.2c.3 1 .3 2.6-.1 3.5-.3.9-.1 2.3.6 3.2 1.1 1.2 1 2-.7 4.3-1.9 2.4-1.9 2.8-.5 3.7.9.6 1.2 1.5.8 2.2-1.1 1.8-2.4 1.4-3-.8-.3-1.1-.9-2.9-1.2-4-.4-1.4-.1-2 1-2 .9 0 1.6-.5 1.6-1.1 0-.6-.9-.8-2.1-.4-2 .7-2 .6-.5-2.4 2.4-4.5 1.9-6-.9-2.6-2.1 2.5-2.7 2.8-3.5 1.5-.7-1.1-1-.6-1 2.2 0 2-.5 4-1.1 4.4-.8.5-.9-.6-.4-3.7 1.1-7.1 2.9-9 9.2-9.8.6 0 1.4.7 1.8 1.8zm-36.2 1.3c.4 1 .8 1 1.5 0 1.7-2.5 2.3 1.8 1.6 10.9-.7 9 .2 11.3 3.1 8.9 1.6-1.4 1.8-1 .9 1.4-.8 2-1.6 2-4-.2-1.3-1.1-2-3.3-2.1-6.7-.4-8.9-1.2-11.5-3.3-11.5-2.2 0-2.3-.1-1.4-2.4.7-1.9 3-2.1 3.7-.4zm-160.1 2.5c2.9 3.3 6.6 11.8 12.2 28.3 6.1 17.6 8.7 22.7 12.4 23.6 3.1.9 3.7-.1 2.3-3.3l-1.1-2.8 2.1 2.8c1.2 1.5 2.6 2.4 3.2 2 .7-.4.6.1-.2 1-1.9 2.4-6.8 2.1-9.5-.6-4.3-4.3-13.6-22.8-21.1-42.2-.7-1.7-.9-1.7-1.2-.4-.5 2.2 2.9 12.4 7.8 22.9 4.6 10 1.7 7.2-3.6-3.5-4.2-8.4-6.5-17.1-6.5-24.2 0-5.6.7-6.4 3.2-3.6zm182.3.5c-.3 1.3-.9 4.1-1.5 6.3l-1 4 .5-4c.3-2.2.5-5 .5-6.3 0-1.2.5-2.2 1-2.2.6 0 .8 1 .5 2.2zm-149.4 17c-.4 9.2-1 17-1.3 17.3-1 1-2.1-15-1.3-19.7 1-7.2 2.7-15 3-14.6.1.2 0 7.8-.4 17zm9.6-11.5c-.3 1-.5.4-.5-1.2 0-1.7.2-2.4.5-1.8.2.7.2 2.1 0 3zm115.4 1c.6 1.6.8 5.3.5 8.3-.3 3-.5 6.3-.6 7.4 0 1.5-.3 1.6-1.5.6-2-1.7-3.2-.5-1.5 1.5.9 1.1 1 1.9.2 2.7-.7.7-1.4-.1-2.2-3.2-1.3-4.9-1-5.6 1.9-4 1.9 1 2.1.8 2.1-1.7 0-1.6-1.1-4.9-2.5-7.5-2.7-5.1-3-6.2-1.6-5.3.5.3 1.2.1 1.6-.5 1.1-1.8 2.5-1.1 3.6 1.7zM95.5 138.6c-2 3.8-3.5 6.2-3.6 5.4 0-2.2 6.2-14.7 6.7-13.4.2.6-1.2 4.2-3.1 8zm164.4-4.1c0 3.4 1 5.5 2.7 5.5 1 0 1.3.6.9 1.6-.3.9-.6 2.1-.6 2.8 0 .7-1.4 3.1-3.1 5.2-2.1 2.7-2.8 4.5-2.4 6.1.4 1.7-.4 3.3-3.4 6.6-2.1 2.3-4 5-4.2 6.1-.2 1-1.4 2.5-2.6 3.3-1.9 1.3-1.7.6 1.4-4.6 1.9-3.3 4.4-6.3 5.4-6.6 1.1-.4 1.9-1.1 1.9-1.7 0-.5-.7-.7-1.6-.4-2.6 1-.7-5.2 3.2-10.3 4-5.1 4.8-9.4 1-4.6l-2.5 3 .9-4c.5-2.2.9-5.1.9-6.5 0-2.2-.1-2.3-1-.7-.6.9-1.5 1.4-2.1 1.1-.7-.5-.9.4-.4 2.8.3 1.9.3 4.5-.2 5.8-.8 2.1-1 2-3.6-2-2.1-3.2-3-3.9-3.7-2.9-.6 1-1 .8-1.7-1.1-1.3-3.3-1-3.4 2.7-1.5s5.1 1.3 5.1-2c0-1.7.4-2.3 1.4-1.9.8.3 2-.1 2.7-.9 1.8-1.9 2.9-1.2 2.9 1.8zm-123.6 8.7c-1.9 6.2-3.8 12.8-4.1 14.7l-.6 3.4 9.9-6.8c5.4-3.8 10.6-7.4 11.5-8.2 4-3.4 2.3-.5-5.1 8.7-4.5 5.5-7.8 10.5-7.5 11s3.8 2 7.8 3.2c10 3.1 24.4 3.1 34.4 0 4-1.2 7.4-2.6 7.7-3 .3-.4-2.9-5.1-7-10.4s-7.4-9.9-7.4-10.3c0-.3 5.3 3 11.7 7.4 6.4 4.4 11.8 7.9 12 7.7.2-.1-1.5-6.3-3.7-13.6s-3.8-13.5-3.6-13.7c.2-.2 3.4 4.4 7.1 10.2 3.6 5.8 7 10.5 7.5 10.5 1.6 0 7-7.4 10.3-14 1.7-3.6 3.3-6.7 3.5-7 .4-.6 3.2 3.1 3.2 4.2 0 .4-.9.8-2 .8s-2.3.6-2.6 1.4c-.9 2.5 2.7 11.5 5.7 14 3.3 2.8 3.4 3.3 1.4 5.9-1.2 1.6-1.8 1.7-4.7.7-3.2-1.1-3.5-1-7.4 2.7-4.1 3.9-4.1 4-2.8 7.3.8 1.8 1.3 3.4 1.2 3.4-.2.1-1.3 1-2.5 2-2.1 1.8-2.3 1.8-5.3-.4l-3.2-2.2-4.6 2.5c-4.2 2.3-4.7 3-4.7 6.1 0 3-.4 3.7-2.9 4.6-4.1 1.4-4.2 1.4-5.6-2-1.2-2.8-1.5-2.9-5.4-2.3-6.8 1-8.4 1.9-8.8 5-.3 2.4-.8 2.8-4 3.1-3.5.3-3.7.1-4.3-3.2-.7-3.3-.9-3.5-6.3-4.4-5.9-1.1-6.5-.9-9.1 3.7-.6 1-1.5 1.1-3.7.4-2.5-.8-2.9-1.5-3.2-5-.3-3.7-.6-4.2-5.3-6.3l-4.9-2.3-2.4 2.2c-2.5 2.3-3.4 2.2-6.8-.7-1.6-1.3-1.6-1.7-.2-4.5 1.6-2.9 1.6-3-2.5-7.1-3.9-3.8-4.2-4-7.2-2.9-2.7 1.1-3 1-2.4-.5 1.3-3.3 3.5-12.7 3.5-14.7 0-1.2.6-2.9 1.3-3.9 1.2-1.6 1.4-1.6 2.6 1 2.1 4.6 8.2 12.5 9.2 11.8.5-.3 4.1-5.2 8-11 3.8-5.7 7.1-10.4 7.3-10.4.2 0-1.1 5.1-3 11.2zm102.6-8.7c0 .3-.9.5-2 .5s-2-.7-2-1.5c0-1.3.4-1.4 2-.5 1.1.6 2 1.3 2 1.5zm10.7-.3c-.3.8-.6.5-.6-.6-.1-1.1.2-1.7.5-1.3.3.3.4 1.2.1 1.9zm-159.3 5.7c-.5 1.2-.9.9-1.5-1.3-.4-1.6-.5-3.4-.2-3.9.9-1.5 2.5 3.4 1.7 5.2zm86.6 12.6 9.2 12-3.2 1.3c-9.1 3.7-22.8 3.9-33.4.6l-5.4-1.7 10.7-13.3c8.1-10.2 10.9-13 11.7-12.1.7.7 5.3 6.6 10.4 13.2zm-81.5-5.6c-1.6 3.9-3 6.9-3.3 6.7-.2-.3.8-3.7 2.4-7.6 1.5-3.8 2.9-6.8 3.2-6.6.2.3-.8 3.7-2.3 7.5zm146.5-5.4c0 2.1-5.7 10.1-6.6 9.2-.8-.8 2-7.7 3.2-7.7.6 0 1.4-.9 1.7-2 .7-2.8 1.7-2.5 1.7.5zm8 5.1c2 4.5 1.9 7.6-.2 11.7-.7 1.4-1.2 1.6-2.3.7-.8-.7-1.9-.9-2.5-.5-.5.3-1-.1-1-.9 0-1 .6-1.3 1.5-1 1.9.8 1.9-2.2 0-5.6-2-3.5-1.8-5 .6-5 1.6 0 2-.5 1.6-2-.9-3.5.3-2.2 2.3 2.6zm-18-.4c0 2.3-.3 2.9-1.1 2.1-.6-.6-.8-2-.4-3.2.9-3 1.5-2.6 1.5 1.1zm.5 7.6c-.7.7-4.5-2.9-4.5-4.1 0-.6 1.1 0 2.5 1.3s2.3 2.6 2 2.8zm3.2 3.2c-2.9 3.8-7.2 10.6-9.6 15-4.1 7.7-7.4 12-9.3 12-.5 0 .2-1.5 1.6-3.3 1.5-2 2.6-4.7 2.6-6.5 0-2.4.5-3.2 1.8-3.2 1 0 3-2.3 4.9-5.4 2.8-4.7 11.8-15.6 12.8-15.6.2 0-2 3.1-4.8 7zm-145 5.2c-.3.7-.5.2-.5-1.2s.2-1.9.5-1.3c.2.7.2 1.9 0 2.5zm13.2 3.7c2.2 3.3 4.6 6.1 5.2 6.3s.9 1.4.7 2.6c-.2 1.9-1.3.6-5.5-6.2-2.9-4.7-5.1-8.6-4.8-8.6.2 0 2.2 2.7 4.4 5.9zm142.6-1c-.7 1.5-2 3.3-2.7 3.9-1.1.9-1.3.4-1-2.5.5-4.4 2.2-6.5 3.9-5.1 1 .8.9 1.6-.2 3.7zm-151.8-2.2c-.4.3-.1 1.3.6 2.1 1.1 1.3.9 1.4-1 .2-2.2-1.4-2.2-3-.1-3 .6 0 .8.3.5.7zm20.5 2c2.4 2.6 2.5 3 1.3 5.3-2.1 3.6-1.9 4.2 2.4 7.2 4.7 3.3 5.8 3.4 8.6.8 2-1.9 2.2-1.9 5.7-.2 3.5 1.6 3.7 1.9 3.1 5.3-.5 3.7-.5 3.7 4.8 5.4 5.2 1.8 5.3 1.8 7-.4 1-1.2 1.9-2.5 2.1-3.1.2-.5 2.2-.6 4.6-.3 3.1.4 4.2 1 4.2 2.3 0 4.3 1 5 7.1 5 5.4 0 5.9-.2 5.9-2.3 0-3.3 1.1-4.3 5.2-5.1 3.4-.6 3.8-.4 5.3 2.4 1.8 3.5 1.7 3.5 7.8 1.4 4.5-1.5 4.7-1.8 4.7-5.3 0-3.3.4-3.9 3.4-5.4 3.3-1.5 3.6-1.5 6 .4 2.9 2.3 4.7 2 9-1.5 2.8-2.3 2.8-2.6 1.6-5.6s-1.1-3.3 1.7-6.1c2-2 3.5-2.8 4.7-2.3 1.5.6 1.5.8-.6 1.8-1.9.9-2.4 2.1-2.6 6.1-.2 3.7-1 5.7-3.2 8.2-1.6 1.8-3.7 4.7-4.5 6.4-1.4 2.6-1.9 2.9-4.9 2.4-2.7-.5-5 .2-12.4 3.9-5.6 2.8-9.8 5.7-11.2 7.6-2.5 3.5-4.2 3.7-7.8 1-2.8-2.3-8-2.5-14.5-.7-3.6 1-4 .9-7.5-2.5-2.3-2.2-6.8-4.7-11.9-6.7-8.9-3.3-12.2-3.8-14.1-1.9-.9.9-2.2.2-5.7-3.2-5.5-5.4-7.4-9.4-6.8-14.2.4-2.9.1-3.8-1.6-4.8-1.2-.6-2.6-.8-3.1-.5s-1.1.1-1.5-.4c-.6-1 2.1-3 4.1-3.1.5 0 2.2 1.2 3.6 2.7zm121.7 4c-1.6 1.9-2.9 3.9-2.9 4.6s-3.3 4.7-7.4 9c-6.3 6.7-7.7 7.7-9.8 7.2-1.9-.5-2.6-.2-3 1.2-.6 2.4-10.8 8-10.8 6 0-.8 2-2.7 4.5-4.2 2.5-1.4 5.3-3.7 6.2-5.1 1.1-1.8 1.8-2.2 2.4-1.3 2 3.3 15.8-11.1 16-16.6 0-1.6.3-2.4.6-1.8.9 2.3 3 1.4 4.3-1.8.9-2.1 1.5-2.6 2.1-1.8.5.8-.4 2.6-2.2 4.6zm-130.8 8c1.3 1.6 1.2 1.7-.3.4-1-.7-1.8-1.5-1.8-1.7 0-.8.8-.3 2.1 1.3zm6.4 3.9c.9 1.5 1.2 2.3.6 2-1.1-.7-3.5-4.6-2.8-4.6.3 0 1.2 1.2 2.2 2.6zm126.3-1.5c-3.3 1.3-4.2 3.5-2.4 6.1 1.3 1.9 1.3 4.9.1 11.4-.7 3.2-11.6 10.4-15.8 10.4-8.2 0-11.8-3.9-7-7.7 1.5-1.2 4-2.5 5.6-2.9 1.6-.3 3.2-1.5 3.7-2.7 2.4-6.2 13-15.8 17-15.6.8 0 .3.5-1.2 1zm-145.4 8.6c-.4 3.2-.8 6-1 6.1-.1.2-2.3-.8-4.8-2.3-5.2-3.1-5.3-5.5 0-5.5 2.3 0 3.7-.6 4.4-2 1.7-3.2 2.1-2.4 1.4 3.7zm20.4-1c.5 1.8-3 1.6-5.4-.2-1.8-1.4-1.7-1.5 1.5-1.3 1.9.2 3.6.9 3.9 1.5zm135.6 1.3c.7.7-1.5 2.4-8.2 6.4-1 .6-1.2-.3-1-4.1l.3-5 4 .9c2.2.5 4.4 1.3 4.9 1.8zm-118 9.9c.6 1.4.4 1.2-8.6-4.7-2.1-1.4-3.8-2.9-3.8-3.3 0-.5-.7-.9-1.5-.9s-1.5-.7-1.5-1.5c0-1.6 14.5 8.1 15.4 10.4zm-31.3 5.6 9.6 6.4 7.9-.9c4.4-.5 13.2-1.8 19.8-2.9 6.5-1.2 13.7-2.1 15.9-2.1h4l-.7 3.7c-.3 2.1-.6 4.6-.6 5.5 0 1-.4 1.8-1 1.8-.5 0-1-.8-1.1-1.8 0-1.3-.2-1.3-.9.4-2 5-6 3.1-6-2.8 0-3.6 2.7-4.9 4.6-2.3 1.3 1.8 1.4 1.7 1.4-.8 0-2.1-.5-2.7-2.3-2.7-3.3 0-6.5 2.6-7 5.8-.3 2.1-.4 2-.3-.6.2-2.9-.1-3.2-2.5-3.2-2.7 0-2.7.1-1.3 2.7.7 1.6 1.4 4.1 1.3 5.8 0 1.6-.3 2.4-.6 1.7-.7-1.7-2.3-1.5-2.3.3 0 1.6-2.5 2.1-3.5.6-.3-.5-.6-3-.7-5.5-.2-4.7-.5-5-3.2-4-1.1.4-1.3 1-.7 1.8.5.6 1.2 3.1 1.6 5.6.6 4.4.6 4.4-.9 1.8-.8-1.5-1.6-3.8-1.8-5-.2-1.8-1-2.4-3.6-2.6-1.8-.2-3.9.1-4.5.6-.7.5-3.8.8-6.9.8-3.5-.1-5.8.3-5.8 1 0 .6-1.1 2.1-2.5 3.4l-2.4 2.3.9-3.3c.5-1.9 1.5-3.7 2.2-4.1.8-.5.2-1.2-1.8-2.1-1.6-.7-5.7-3.2-9.1-5.5-5.9-4.1-9.1-5.5-7.8-3.3.8 1.3-4.3 9.2-5.5 8.5-.6-.3-1-2-1-3.7s.3-2.8.6-2.5c1.2 1.1 4.4-1.3 4.4-3.3 0-1-1.3-2.8-2.9-3.9-3.5-2.5-4.1-2.6-4.1-.5 0 2.5-5.7 10.1-6.7 9-.2-.2.8-2.9 2.3-6 1.4-3.1 2.4-6.3 2.1-7-.7-1.8 11.2 4.8 23.4 12.9zm159.9-3.9c1.7 3.7 1.7 4.2.1 6.2-.9 1.2-7.9 6.4-15.6 11.7l-13.9 9.5h-7.6c-9.2 0-18.6-1.3-30.7-4.1l-9.2-2.2.6-4.8c.4-3.8.1-5.5-1.5-8.3L180 204h2.4c1.3 0 8.1 1.2 15.2 2.6 7 1.4 16.3 2.8 20.6 3.1l7.7.6 9.8-7.5c5.3-4.1 12.2-8.9 15.2-10.6l5.5-3.2.8 3.3c.5 1.7 1.7 5 2.7 7.3zm-57-8.6c0 .5-1 1-2.2 1-1.9 0-2-.2-.8-1 1.9-1.3 3-1.3 3 0zm-59.8 3.9c2.4 1 5.2 2.8 6.2 4 1.9 2.1 1.9 2.1-1 2.1s-10.4-5.1-10.4-7.1c0-1.2.2-1.2 5.2 1zm50.2.7c-1.7 2.5-6.2 5.4-8.5 5.4-2.5 0 6.7-7.4 9.9-8 .1 0-.5 1.1-1.4 2.6zm5 4.1c-1.3.9-2.1 1-2.8.2-.8-.7-.4-1.6 1.4-3.1 2.3-1.9 2.5-1.9 2.9-.2.2 1-.5 2.4-1.5 3.1zm-115.9-.8c-.3.6-1.1 1.1-1.7 1.1-.6 0-.6-.6.2-1.5 1.4-1.7 2.6-1.3 1.5.4zm56.4 2.9c-1 .2-2.7-.2-3.9-.8-1.6-.9-1.8-1.3-.8-2.4 1.1-1.1 1.7-1 3.9.8s2.3 2.1.8 2.4zm33.4.6c1.1-1.1 7.7 9 7.7 11.7 0 2.9-1.5 4.8-2.3 2.7-.2-.8-1.9 0-4.5 2.4-5.1 4.6-9.1 5.4-4.9 1 3.3-3.4 3.5-7.2.7-14.1l-1.9-5 2.3.9c1.3.5 2.6.6 2.9.4zm-88 9.6c8.2 5.5 9.8 6.4 9.6 4.8-.4-3.1.2-3.8 3.5-3.8 1.9 0 3.7-.6 4-1.3.6-1.2.3 1.3-.9 7-.9 4.4.5 4.2 5.9-.7 2.4-2.2 4.8-4 5.3-4 1.3 0 2.5 7.2 1.7 9.4-.5 1.3 0 1.5 2.7 1 1.9-.4 4-1.1 4.7-1.7 1.4-1.1 1.6-4.3.2-5.2-1.2-.8-1.3-5.5-.1-5.5 1.1 0 2.4 8.6 1.5 10.1-.5.8.2 1 2.2.6 1.6-.3 5.8-1 9.4-1.6 11.7-2 12.3-2.2 11.1-3.4-.6-.6-1.1-1.5-1.1-2.1 0-.5.6-.2 1.3.8 1.2 1.6 2.2 1.7 7.5 1.1 3.4-.4 6.2-1.1 6.2-1.6s-.4-.9-1-.9c-.5 0-.7-.7-.4-1.5.9-2.2 3.4-1.8 3.4.5 0 1.1.6 2 1.3 2.1.6 0-1.9 1.1-5.8 2.5-7.9 2.7-25.7 6.6-38.8 8.4l-8.8 1.2-8.2-4.2c-17.2-9-32.6-20.4-24.7-18.3 1.2.3 2 .2 1.9-.3s0-1.6.1-2.4c.2-.8.5.1.7 2 .3 2.9 1.3 4.1 5.6 7zm6.7-7c-1.8 1.1-2.2.7-1.4-1.4.5-1.3 1-1.4 1.8-.6.8.8.7 1.3-.4 2zm37.4-.9c-.7 1.1-3.4 1.2-3.4.1 0-1.4 1.1-2.1 2.6-1.5.8.3 1.1.9.8 1.4zm36.9 3.6c.9 2.7 1.7 5.3 1.7 6 0 2.7-2.8-.1-5.3-5.2l-2.7-5.5h2.3c1.8 0 2.6 1 4 4.7zm43.7-2.9c0 .5-1.3.7-3 .4-1.6-.2-3-.6-3-.8 0-.2 1.4-.4 3-.4 1.7 0 3 .4 3 .8zm-116.1 5.6c-2.1 3.7-3.6 4.8-2.5 2 .4-1.2.1-1.4-1.3-.9-2.4.7-3.5-.9-2.2-3.2 1-1.7 1-1.6 1.1.2.1 2 .1 2 1.8-.1 1.9-2.3 4.5-3.5 5-2.4.2.4-.7 2.4-1.9 4.4zm5.6-.5c-.3.6-1.1 1.1-1.7 1.1-.6 0-.6-.6.2-1.5 1.4-1.7 2.6-1.3 1.5.4zm27.2 4.3c-.3.8-.6.5-.6-.6-.1-1.1.2-1.7.5-1.3.3.3.4 1.2.1 1.9zm-8.7.3c0 .8-.2 1.5-.4 1.5s-.6-.7-1-1.5c-.3-.8-.1-1.5.4-1.5.6 0 1 .7 1 1.5zm10.6 3.6c.3.6.2 1.5-.4 2.1-.6.6-1.1.2-1.5-1.1-.5-2.2.7-2.9 1.9-1zm-8.6 2.5c0 .8-.4 1.4-.9 1.4-1.1 0-2.2-2.6-1.4-3.4.9-.9 2.3.3 2.3 2zm25.3 7.8c-2.7 1.8-6.9 4.3-9.3 5.5l-4.5 2.2 3.3-2.8c1.8-1.5 3.2-3.4 3.2-4.1 0-.6.8-1.2 1.9-1.2 1 0 3.4-.7 5.2-1.5 5.4-2.3 5.5-1.7.2 1.9zm50.4 2.2c4.8 3.3 6 5.5 3 5.4-1.8-.1-11.4-9-9.7-9 .8 0 3.8 1.6 6.7 3.6zm-61.3 7.4c2.7 1 3.6 3 1.4 3-1.7-.1-6.7-3.9-5.1-4 .6 0 2.3.4 3.7 1zm70.1-.1c-1.5 1.4-5.5 2.3-5.5 1.3 0-1.5 1.2-2.2 3.9-2.2 1.5 0 2.1.4 1.6.9z"/><path d="M248.3 198.2c.4 1.3 1.2 4.4 1.8 7 .6 2.7 1.5 4.8 1.9 4.8 1.6 0 2-2.1.8-3.6-1-1.3-1-1.7.2-2.5.9-.6 1.8-.4 2.5.6 1.3 1.8 4.4 1 4.4-1.1 0-.8-.3-1.3-.7-1.2-.5.2-2.9-1.2-5.5-3-5.5-3.8-6.2-3.9-5.4-1zM242.2 200.7c-1.7.6-1.7 2.3 0 2.3.7 0 1.8.9 2.5 2.1 1.2 1.9 1.2 2-1 1.3-3.7-1.3-8.1-1-8.6.5-.2.8 0 1.1.6.7 1.2-.7 6.2 5.6 6.2 7.8 0 2.3-.6 2-6.1-2.6-2.7-2.2-5.2-3.9-5.5-3.6-.3.4-.1 3.2.5 6.3.6 3.2.8 6.1.5 6.6-.3.5.2.9 1 .9 2 0 3.1-2 1.6-3-.7-.4-.9-1.3-.6-1.9 1-1.6 3.6-1.3 3.6.4 0 2.1.8 1.9 5.2-1.1 3.9-2.8 4.8-4.4 2.4-4.4-.7 0-2.1-1.1-3-2.5l-1.7-2.5 5.3 2c2.8 1.1 5.4 1.7 5.7 1.5.2-.3-1-2.5-2.7-4.9-1.8-2.4-3.2-4.9-3.2-5.5 0-1.2-.7-1.3-2.7-.4zM184.9 206.9c0 .6.4 1.1.9 1.1 1.1 0 .3 6.6-1.1 9.2-.5 1.1-.5 1.8.1 1.8.5 0 1.5.2 2.3.5 1 .4 1.4-.8 1.5-4.7.1-2.8.7-5.6 1.3-6.2.7-.7 1-.5 1 .7 0 .9.5 1.7 1 1.7.6 0 1-.5 1-1 0-.6.5-1 1.1-1 1.5 0 .4 9.1-1.2 10.1-1.5.9-.2 1.5 5.3 2.3 4.3.7 4.6.6 4.1-1.4-.4-1.6-.1-2 1.7-2s2.1.4 1.6 2.4c-.5 2.2-.2 2.4 4.7 3 2.8.4 6.2 1 7.5 1.3 1.8.4 2.2.1 2.2-1.8 0-1.8-.3-2-1.2-1.1-2.7 2.7-4.1 1.4-3.5-3.5.3-2.6 1-4.9 1.6-5.1 2.3-.8 1-2.2-2-2.2-1.9 0-2.8.4-2.4 1.1 1.2 1.8-.5 9.9-2 9.9-1.2 0-3.5-7.5-3.5-11.5 0-3.1-2.1-1.3-4.7 4-3.4 7-5.8 7.4-5 1 .5-5.2 1.4-6.6 2.7-4.5 1.1 1.8 2.5.6 1.7-1.5-.4-.8-1.9-1.6-3.4-1.7-5.4-.3-7.8-.6-10.5-1.3-1.8-.5-2.8-.3-2.8.4zM221.9 213c0 .5.5 1 1.1 1 .7 0 1 2 .7 5.5-.3 5.4-.3 5.5 2.5 5.5 1.5 0 2.7-.5 2.7-1 0-.6-.4-1-.9-1-1.3 0-2.1-8.3-.9-9.7.8-1 .3-1.3-2.1-1.3-1.7 0-3.1.4-3.1 1zM377.4 38.2c-1 2.6-36.5 147.2-36.5 148.5 0 1 2.8 1.3 12.4 1.3h12.4l3.9-15.8 3.9-15.7 28.5-.3 28.5-.2 3.9 16 3.9 16h12.9c9.9 0 12.8-.3 12.5-1.2-.3-.7-8.7-34.7-18.8-75.6L426.5 37h-24.3c-18.6 0-24.5.3-24.8 1.2zm38.7 57.3c4.8 19.8 8.7 36.3 8.8 36.7 0 .5-10.4.8-23.1.8-18.1 0-23-.3-22.6-1.3.2-.6 4.4-17.3 9.2-37l8.7-35.8 5.1.3 5.1.3 8.8 36zM596.9 112.5V188h25V37h-25v75.5zM654.9 112.5v75.7l32.8-.5c35.8-.6 41.5-1.3 51.8-6.5 11.3-5.8 18.2-14.6 22.8-29.2 3.9-12.2 4.9-23.5 4.3-46.6-.4-17.1-.9-22.4-2.6-28.9-5.9-21.9-14.7-31.5-33.8-36.7-7-1.8-11.3-2.1-41.5-2.5l-33.8-.5v75.7zM712.7 60c14.8 1.7 21.4 7.1 25.5 20.8 2.8 9.6 3.6 42 1.3 54.2-2.1 11.2-6.6 20.2-11.9 24.1-6.7 4.9-12.1 5.9-30.9 5.9h-16.8V59h12.3c6.7 0 15.9.4 20.5 1zM1034.9 41c0 3.9.1 4 3.5 4s3.5-.1 3.5-4-.1-4-3.5-4-3.5.1-3.5 4zM824.4 39.2c-.9 2.5-15.5 56.2-15.5 57.1 0 .4 1.7.7 3.7.5 3.7-.3 3.7-.3 5.6-7.6l2-7.3 12.1.3 12.1.3 1.9 7.2 1.9 7.3h3.9c3.3 0 3.8-.3 3.4-1.8-.3-.9-3.7-13.4-7.6-27.7s-7.3-26.8-7.6-27.8c-.4-1.4-1.8-1.7-8-1.7-5.1 0-7.6.4-7.9 1.2zm10.8 10c5.7 20.1 6.9 24.9 6.5 25.4-.3.2-4.8.3-10 .2l-9.5-.3 3.9-14c4.8-17.4 4.5-16.5 6.2-16.5.9 0 2 2 2.9 5.2zM870.3 54c-5.7 1.8-7.8 5.3-8.2 13.4-.4 6.9-.2 7.5 2.6 10.7 2.8 3.3 2.9 3.6 1.5 6.2-1.1 2.2-1.2 3.5-.4 5.9.9 2.6.8 3.3-.8 4.4-2.8 2-4.4 6.9-3.8 11.7.8 6.1 4.7 9.3 12.6 10.2 15.5 1.8 25-3.4 25.1-13.7 0-9.2-3.6-12.1-16.4-12.8-9-.5-9.1-.5-9.4-3.3-.4-3.1 0-3.3 8.2-4.2 5-.6 6.6-1.3 9.4-4.1 3.4-3.4 3.4-3.5 3-10.9l-.3-7.5h2.7c2.4 0 2.8-.4 2.8-3 0-3-.1-3-5.3-3-3 0-8.7-.2-12.8-.5-4.1-.2-8.8 0-10.5.5zm14.8 8c2 2.4 2.4 8.1.8 11-2.3 4.3-12.6 4.8-15.5.7-3-4.3-1.4-11.9 2.8-13.7 3.5-1.5 10-.4 11.9 2zm4.6 36.3c.8.6 1.2 2.6 1 5.1-.4 5.2-2.9 6.6-12 6.6-6.1 0-6.8-.2-8.8-2.7-2.5-3.2-2-6.9 1.2-9.6 1.9-1.6 3.3-1.7 9.7-1.1 4.2.3 8.2 1.1 8.9 1.7zM916.5 54c-9.5 3-14.4 18.5-10.2 32.5 2.9 9.6 8.3 12.1 23.3 11l9.3-.7V91h-10.1c-9.8 0-10.1-.1-13-2.9-1.9-2-2.9-4-2.9-6V79h26.8l.6-3.3c.7-3.6-.7-12.5-2.4-15.7-2.8-5.3-13.9-8.4-21.4-6zm11.2 6.5c2.7.8 5.2 5.3 5.2 9.5v3H912.2l.7-4.1c1.2-6.2 5.9-10.3 11-9.3.8.1 2.5.5 3.8.9zM961.9 54.5c-2.7.9-4.6 1.1-4.8.5s-1.9-1-3.8-1h-3.4v43h8V62.3l3.9-1.1c6.5-2 10.7-1.5 13 1.4 1.9 2.4 2.1 4 2.1 18.5V97h8.3l-.5-16.8c-.6-19.5-1.6-23.4-7.2-25.7-4.3-1.8-9.7-1.8-15.6 0zM1062.9 53.5c-.8.2-3.2.6-5.2 1-3.3.5-3.8.9-3.8 3.4v2.8l10-.5c7.1-.3 10.4-.1 11.5.8 1.5 1.3 3.2 7.7 2.2 8.7-.3.3-4.3.9-8.8 1.4-13.9 1.6-16.9 4.2-16.9 14.4 0 10.6 7.4 14.6 20.8 11.1 5.4-1.4 6.5-1.4 9.6-.1 5.6 2.4 7.6 2 7.6-1.3 0-2.1-.7-3.2-2.5-4-2.5-1.2-2.5-1.2-2.5-14.7 0-16.1-1.1-19.8-6.4-22-3.1-1.3-11.5-1.8-15.6-1zm15 28.9c0 6.4 0 6.5-3.3 7.5-1.8.6-5.2 1.2-7.6 1.3-3.5.1-4.8-.3-6.3-2.1-2.3-2.9-2.3-6.3 0-9.1 1.3-1.6 3.4-2.4 7.7-3 10.3-1.3 9.5-1.8 9.5 5.4zM1128.4 54.5c-2.4.8-4.1 1-4.3.5-.2-.6-1.9-1-3.8-1h-3.4v62h7V97.5h8.3c10.4 0 14-1.8 17-8.3 3-6.8 3-21.9-.1-28.2-1.2-2.5-3.1-5.1-4.3-5.8-3.3-2.1-11.8-2.4-16.4-.7zm10.7 6.6c2.9 1.6 4.8 7 4.8 14.2 0 12.3-3.1 15.7-14 15.7h-6V62.9l3.3-1.4c3.9-1.7 9.1-1.9 11.9-.4zM1168.9 55.2c-5.9 3.1-8.2 7.8-8.8 17.8-.2 4.4.1 10 .8 12.9 2.4 10 8 12.8 23.4 11.6l9.6-.7V91h-10.3c-11.8 0-14-1-15.7-6.8-.5-2-1-4-1-4.5 0-.4 6.3-.7 14-.7h14v-6.8c-.1-9.4-2.6-14.6-8.2-17.2-5.8-2.6-12.3-2.5-17.8.2zm15.7 7.2c1.2 1.2 2.5 4 2.9 6.3l.7 4.3h-21.5l.7-3.6c.9-5.2 3.2-8.3 6.9-9.3 4.1-1.1 7.6-.4 10.3 2.3zM1222.9 53.9c-1.4.5-4.4 1.8-6.7 3l-4.3 2.1v-2.5c0-2.2-.4-2.5-3.5-2.5h-3.5v43h7V66.2l3.8-1.8c2-.9 5.5-2.3 7.7-2.9 3.6-1.1 4-1.6 4.3-4.9.3-3.8-.1-4.1-4.8-2.7zM993.9 57.5V61h22.1l-11 14.4c-9.4 12.2-11.1 15-11.1 18V97h32v-7h-11c-6 0-11-.2-11-.5 0-.2 4.9-6.9 11-14.7 8.7-11.4 11-15 11-17.6V54h-32v3.5zM1034.9 75.5V97h7V54h-7v21.5zM510.3 76.1c-15.2 1.8-25.3 7.9-30.5 18.5-3 6.1-3.4 7.9-3.7 17-.6 14.5 1.9 22.4 9.2 30l5.3 5.5-3.3 6.2c-2.7 5-3.4 7.4-3.4 12 0 5.9 1.5 10.2 4.5 12.7 1.4 1.2 1 2-4.3 7.4-8.4 8.6-9.6 11.3-9.7 21.6 0 14.7 5.8 23 19.4 27.5 16.1 5.2 45.5 4.5 61.6-1.5 14.9-5.7 22.4-20.6 19.6-39-3-19.1-10.3-23.3-43.7-25-10-.5-19.3-1.4-20.8-2.1-4-1.9-4.4-5.2-1.5-12.9.9-2.4 1.1-2.5 10-2.2 11 .4 23.4-1.9 30.3-5.6 9.6-5.2 13.5-12.9 14.3-28.2.5-9.2.1-11.5-3.2-19.4-.8-1.7-.3-1.8 7.3-1.5l8.2.4v-20l-15.7.4c-8.7.2-19.4-.2-23.8-.8-13.1-1.7-18.6-1.9-26.1-1zm21.5 21.5c4.8 2.8 7.4 8.5 7.4 16.6 0 10.6-5 16.8-14.9 18.3-12.2 1.8-21.2-3.1-23.4-13-2.4-10.6 1.9-20.2 10.5-23.4 4.5-1.6 16.5-.8 20.4 1.5zm4.4 93.4c11.6 1.2 15.5 4.8 14.3 13.5-.6 5-5.5 9.8-11.8 11.6-5.5 1.6-24 1.6-29.7 0-2.4-.7-5.7-2.5-7.3-4.1-5.3-5.3-3.4-16.1 3.9-21.5 1.9-1.5 13.4-1.3 30.6.5zM812.9 156.5V187h7v-61h-7v30.5zM935.9 156.5V187h7v-61h-7v30.5zM1225.9 156.5V187h7v-61h-7v30.5zM832.5 128.7c-.2 1-1 4.5-1.6 7.8-.6 3.3-1.4 6.8-1.7 7.8-.4 1.6 0 1.8 2.8 1.5 3.2-.3 3.4-.6 5.5-7.8 3.1-10.5 3.1-11-1-11-2.4 0-3.6.5-4 1.7zM953.9 131.5c0 4.5 0 4.5 3.5 4.5s3.5 0 3.5-4.5 0-4.5-3.5-4.5-3.5 0-3.5 4.5zM1080.9 131.5c0 4.5 0 4.5 3.5 4.5s3.5 0 3.5-4.5 0-4.5-3.5-4.5-3.5 0-3.5 4.5zM1139.9 131.5c0 4.5 0 4.5 3.5 4.5s3.5 0 3.5-4.5 0-4.5-3.5-4.5-3.5 0-3.5 4.5zM848.9 157.5V187h7v-59h-7v29.5zM1029.9 157.5V187h13.3c19-.1 23.4-2.5 27.1-14.9 2.1-7.2 2.1-23 0-30.1-1.9-6.5-6.4-11.4-11.9-12.9-2.2-.6-9.5-1.1-16.2-1.1h-12.3v29.5zm27-21.2c3.3 1.6 6.7 8.5 7.6 15.4.8 6.9-1 18.6-3.6 22.8-2.7 4.4-5.8 5.5-15.5 5.5h-8.5v-45h8.8c4.9 0 9.8.6 11.2 1.3zM868.9 137.5c0 6.3-.1 6.5-2.5 6.5-2.2 0-2.5.4-2.5 3.5 0 3 .3 3.5 2.4 3.5 2.3 0 2.4 0 2.8 14.7.5 15.8 1.4 19.4 5.5 21.2 2.6 1.2 11.1 1.5 13.7.5 1-.4 1.6-1.8 1.6-3.5 0-2.8-.1-2.9-5.3-2.9-2.9 0-5.8-.5-6.5-1.2-.8-.8-1.2-5.6-1.2-15V151h13v-7h-13v-13h-8v6.5zM1158.9 137.5v6.5h-3c-2.8 0-3 .3-3 3.5s.2 3.5 3 3.5h3l.1 13.7c0 19.9 1.8 23.3 11.9 23.3 7.3 0 9.2-.9 8.8-3.9-.3-2.4-.7-2.6-6.3-3.1-7.3-.6-7.3-.6-7.4-17.8l-.1-12.2h13v-7h-13v-13h-7v6.5zM905.4 143.5c-.5.2-3.1.6-5.7 1-4.5.6-4.8.8-4.8 3.5v2.9l9.5-.6c11.3-.7 13.5.4 13.5 6.9v3.8h-4.4c-8.5 0-14.9 1.8-17.8 5-2.3 2.5-2.8 3.9-2.8 8.5 0 3 .5 6.6 1.2 8 2.4 5.3 10.6 7 20.3 4.1 4.2-1.3 5.2-1.3 7.6 0 1.5.7 3.9 1.4 5.4 1.4 2.1 0 2.5-.5 2.5-3 0-1.7-.4-3-.9-3s-1.7-.7-2.5-1.6c-1.3-1.3-1.6-4.2-1.6-15.8 0-12.9-.2-14.6-2-16.9-2.8-3.6-12.5-5.9-17.5-4.2zm12.5 29c0 6.2-.1 6.6-2.7 7.6-1.6.6-5 1.2-7.6 1.2-5.5.2-7.7-1.6-7.7-6.4 0-4.8 2.9-7.1 10.1-7.9 3.5-.4 6.7-.8 7.2-.9.4 0 .7 2.8.7 6.4zM979.9 143.7c-9.3 1.4-9 1.2-9 4.3v2.8l9.4-.5c8.7-.5 9.5-.4 11.5 1.6 1.6 1.6 2.1 3.2 1.9 5.4l-.3 3.2-7.5.7c-9.3 1-13.6 2.4-15.5 5.1-1.8 2.6-2 12.5-.3 16.2 2.4 5.3 10.6 7 20.3 4.1 4.2-1.3 5.2-1.3 7.6 0 1.5.7 3.9 1.4 5.4 1.4 2.1 0 2.5-.5 2.5-2.8 0-2.1-.7-3.2-2.5-4-2.5-1.2-2.5-1.2-2.5-15.4 0-12.4-.3-14.7-2-17.5-2.7-4.5-9.4-6.1-19-4.6zm14 28.8c0 7.4-.3 7.7-9.2 9-3.9.6-4.9.4-6.7-1.4-2.7-2.7-2.8-8.2-.1-10.6 1.2-1.1 4.5-2.1 8.2-2.5 3.5-.4 6.6-.8 7.1-.9.4 0 .7 2.8.7 6.4zM1105.6 144.4c-2 .7-4.4 1.9-5.2 2.6-4.4 3.7-4.6 17.2-.2 21.8 2.1 2.2 2.4 3.1 1.5 4.6-.6 1-.8 3.8-.5 6.2.4 3.5.1 4.7-1.8 6.4-3 2.8-3.9 7.7-2.3 12.5 1.9 5.6 5.1 7.5 13.9 8.2 9.1.7 15.2-.9 19.1-4.7 2.5-2.5 2.8-3.6 2.8-9 0-10.4-2-12.1-15.5-12.9l-9-.6v-3c0-3 .1-3 6.5-3.7 9.8-1.1 14-5.1 14-13.5 0-2.3-.4-5.3-1-6.7-.9-2.5-.8-2.6 2.5-2.6 3.2 0 3.5-.2 3.5-3v-3h-6.4c-3.4 0-9-.2-12.2-.5-3.8-.4-7.2 0-9.7.9zm11.9 6.1c5.3 1.4 5.5 12.6.4 15.3-2.8 1.4-9.3 1-11.5-.8-2.1-1.8-2.9-7.6-1.5-11 .8-2 2.3-3.3 4.4-3.9 3.1-.9 4-.8 8.2.4zm5.1 37.1c4.2.8 4.3 9.3.1 11.5-3.6 1.9-14.4 1.6-16.8-.6-2.6-2.4-2.6-7.2.1-10.1 1.8-1.9 2.8-2.1 8.2-1.7 3.4.2 7.2.6 8.4.9zM1193.9 143.7c-9.3 1.4-9 1.2-9 4.3v2.8l9.4-.5c8.7-.5 9.5-.4 11.5 1.6 1.6 1.6 2.1 3.2 1.9 5.4l-.3 3.2-7.5.7c-13.1 1.4-16.1 3.2-17.5 10.9-1 5.6 1 11.7 4.8 13.9 3.8 2.4 10.4 2.6 17.1.6 4-1.2 5.1-1.2 7.4 0 1.5.8 3.9 1.4 5.5 1.4 2.3 0 2.7-.4 2.7-2.8 0-2.1-.7-3.2-2.5-4-2.5-1.2-2.5-1.2-2.5-14.9 0-16.2-1.2-20-7-22-3.4-1.2-9-1.4-14-.6zm14 28.7c0 3.6-.4 6.7-.9 7.1-.6.3-3.5 1-6.6 1.6-7.5 1.4-10.5-.3-10.5-6.1 0-5.9 2-7.2 13-8.3 1.9-.2 3.8-.5 4.3-.5.4-.1.7 2.7.7 6.2zM1252.4 144.4c-7.9 3-11 10.2-10.3 24.4.5 10.3 2.5 14.7 7.8 17.4 3.6 1.9 12.1 2.3 19.3 1.2 3.3-.6 3.7-1 3.7-3.5V181h-8.6c-9.8 0-12-.9-14-5.5-2.7-6.5-2.7-6.5 10.6-6.5h12.1l-.3-10.7-.3-10.7-3.2-1.8c-4.3-2.6-11.9-3.2-16.8-1.4zm12 6.2c2.2.9 4.5 5.7 4.5 9.4v3h-10c-9.4 0-10-.1-10-2 0-3.2 2.6-8.7 4.7-9.9 2-1.2 8.2-1.4 10.8-.5zM953.9 165.5V187h7v-43h-7v21.5zM1080.9 165.5V187h7v-43h-7v21.5zM1139.9 165.5V187h7v-43h-7v21.5z"/></g></svg>