<svg width="112" height="20" xmlns="http://www.w3.org/2000/svg"><defs><linearGradient x1="49.895%" y1="144.656%" x2="49.895%" y2="58.26%" id="a"><stop stop-color="#29AAE1" offset="0%"/><stop stop-color="#176C98" offset="100%"/></linearGradient><linearGradient x1="49.988%" y1="146.695%" x2="49.988%" y2="58.655%" id="b"><stop stop-color="#29AAE1" offset="0%"/><stop stop-color="#176C98" offset="100%"/></linearGradient></defs><g fill="none" fill-rule="evenodd"><g fill-rule="nonzero"><path fill="url(#a)" d="M.013.118h6v19.514h-6z" transform="translate(84.474)"/><path d="M18.355.132h-9.54v19.473h8.343c6.934 0 10.17-3.658 10.17-9.763 0-5.013-2.341-9.71-8.973-9.71zm2 13.947h-6.04c-.552 0-1-.592-1-1.145 0-1.645.988-3.118 2.396-3.75-.448-.42-.724-1.066-.724-1.723 0-1.303 1.052-2.369 2.342-2.369s2.342 1.04 2.342 2.342c0 .658-.276 1.263-.724 1.684 1.408.632 2.408 2.171 2.408 3.816 0 .566-.447 1.145-1 1.145z" fill="url(#b)" transform="translate(84.474)"/></g><path d="M34.803 14.04c0 .973-.027 1.947.013 2.92.04 1.237-.553 2.053-1.658 2.461-1.697.632-3.434.632-5.119-.04-1.013-.394-1.578-1.197-1.578-2.342.013-2.078 0-4.144 0-6.223.013-1.092.526-1.882 1.513-2.277 1.815-.736 3.658-.75 5.46.04.908.408 1.369 1.145 1.369 2.158-.014 1.105 0 2.21 0 3.302zm-6.066-.106c0 .816-.013 1.619 0 2.434.013 1.066.368 1.474 1.42 1.553.448.04.922 0 1.356-.092.737-.158.987-.487.987-1.224.013-1.776.013-3.566-.013-5.342 0-.29-.119-.658-.316-.868-.579-.632-2.513-.645-3.079-.027-.21.237-.329.632-.342.96-.04.856-.013 1.738-.013 2.606z" fill="#1F63A7"/><path d="M55.329 16.632h1.921c.303.894.066 1.697-.684 2.236-1.316.96-2.816 1.053-4.355.843-.869-.119-1.711-.316-2.356-1-.394-.422-.67-.869-.67-1.461 0-2.237.012-4.46 0-6.697 0-1.316.96-1.921 1.973-2.21 1.737-.488 3.5-.554 5.145.446.565.343.934.777 1 1.448l.079.579c.29 2.066-.895 3.46-2.987 3.526-.527.013-1.04-.013-1.553.013-.947.04-1.46.553-1.553 1.513-.105 1.21.29 1.882 1.277 2.04.473.079.96.04 1.447-.013.75-.066 1.132-.566 1.316-1.263zm-3.921-3.974c.987-.04 1.895-.053 2.79-.132.552-.052.947-.473 1.026-1.013.105-.592-.092-1.066-.54-1.342-.868-.553-2.566-.303-3.276.487v2zM44.066 17.329c.079-.263.17-.526.263-.842h1.921c.355 1.21.053 2.184-1.092 2.684-2 .855-4.066 1.013-6.026-.237-.658-.408-.987-1.026-.987-1.79a966.338 966.338 0 0 1 0-10.697c.013-1.592 1.013-2.329 2.618-2.618 1-.184 2.08-.105 3.092 0 .842.092 1.619.474 2.145 1.197.395.553.474 1.171.316 1.908h-1.948a30.004 30.004 0 0 0-.394-.895c-.895-.67-1.856-.697-2.869-.381-.447.131-.71.447-.75.908-.013.197-.013.381-.013.579v9.131c0 1.21.395 1.619 1.619 1.685.75.039 1.46.026 2.105-.632z" fill="#A6A8AC"/><path d="M7.895 19.605H5.67c-.026-.276-.079-.552-.079-.842 0-2.618.026-5.237-.013-7.855-.013-1.197.513-2 1.579-2.421 1.79-.698 3.605-.71 5.381.079.895.395 1.408 1.145 1.408 2.131.014 2.882 0 5.764-.013 8.645 0 .053-.052.119-.105.237h-2.171V11.618c0-1.25-.408-1.67-1.684-1.71-.724-.026-1.435.013-2.066.79-.013 2.868-.013 5.855-.013 8.907zM23 9.974h-2c-.066 3.237 0 6.381-.04 9.618h-2.25v-9.526c-.552-.066-.986-.105-1.486-.158V8.303l1.408-.171c.026-.527.052-1.027.052-1.54 0-1.158.527-1.974 1.566-2.46.96-.448 2.882-.593 4.066-.25-.145.513-.29 1.026-.434 1.552-.553.066-1.04.105-1.514.171-1.105.158-1.381.474-1.394 1.58 0 .289.026.565.04.933.67.04 1.289.093 1.973.132C23 8.829 23 9.329 23 9.974z" fill="#1F63A7"/><path d="M69.842 9.868c-.54-.079-.974-.144-1.474-.21V8.17c.408-.053.843-.118 1.408-.197.04-.882.066-1.763.106-2.724H72c.04.882.066 1.75.105 2.724.632.052 1.198.105 1.869.158.026.473.052.947.079 1.513-.671.066-1.264.118-1.935.197-.026.408-.065.75-.065 1.092a323.373 323.373 0 0 0 0 5.053c0 1.355.21 1.605 1.579 1.829.092.013.184.052.342.105v1.684c-1.342.08-2.54-.158-3.5-1.105-.513-.5-.645-1.158-.645-1.868V11c.013-.355.013-.71.013-1.132z" fill="#A6A8AC"/><path d="M.132 3.921h2.105V19.58H.17C-.013 18.92-.079 5.316.131 3.92z" fill="#1F63A7"/><path d="M62.487 19.579h-2.092c-.027-.303-.066-.579-.066-.855 0-2.527-.013-5.053 0-7.566.013-1.5.645-2.382 2.053-2.803 1.092-.329 2.21-.342 3.486-.223-.157.605-.29 1.144-.447 1.776H64.33c-1.408.053-1.776.434-1.776 1.816v6.987c-.014.25-.04.5-.066.868z" fill="#A6A8AC"/></g></svg>