<svg width="99" height="24" xmlns="http://www.w3.org/2000/svg"><g fill="none" fill-rule="evenodd"><path d="M98.4 7.739v16.13H82.596s-2.629-.163-4.767-1.796c-3.543-2.693-3.429-5.355-3.429-5.355V.033h18.84s2.156 1.06 3.723 3.396c1.339 2.008 1.437 4.31 1.437 4.31z" fill="#06C" fill-rule="nonzero"/><path d="M74.4 5.437v6.073s2.596-.392 2.596-3.183c0-2.482-2.596-2.89-2.596-2.89zM81.584 3.51a11.928 11.928 0 0 0-1.34-.114c-.244 0-.424.016-.489.065a.263.263 0 0 0-.114.229c0 .098.049.18.147.212.098.033.359.098.783.18.409.065.719.196.882.359.18.18.261.44.261.832 0 .833-.522 1.258-1.55 1.258-.344 0-.752-.05-1.242-.147l-.244-.05.032-.865c.637.082 1.094.115 1.339.115.245 0 .424-.017.522-.066.098-.049.131-.114.131-.228 0-.098-.049-.18-.147-.212-.098-.05-.343-.098-.75-.18-.41-.065-.703-.18-.899-.343-.196-.163-.294-.44-.294-.865 0-.408.147-.719.408-.93.278-.213.637-.311 1.078-.311.31 0 .718.049 1.257.147l.245.049-.016.865zM84.18 3.38c-.196 0-.392.032-.588.114l-.098.033V5.55c.228.033.424.049.571.049.31 0 .506-.098.62-.261.115-.18.18-.474.18-.898-.016-.702-.228-1.061-.685-1.061zm-1.715 4.669V2.547h1.029v.212c.326-.196.62-.31.882-.31.522 0 .914.163 1.159.457.245.31.375.85.375 1.6 0 .751-.147 1.274-.408 1.567-.278.294-.735.441-1.355.441-.18 0-.36-.016-.555-.049l-.098-.016v1.6h-1.029zM91.886 5.486 92 5.469V3.43a4.555 4.555 0 0 0-.751-.082c-.408 0-.62.375-.62 1.126 0 .409.049.686.147.866.097.18.244.245.457.245.196 0 .408-.033.653-.098zm1.143-4.49v5.437H92v-.164c-.36.18-.67.245-.947.245-.571 0-.963-.163-1.175-.49-.229-.326-.327-.832-.327-1.55 0-.703.13-1.225.408-1.552.261-.326.67-.49 1.208-.49.164 0 .392.033.686.082l.147.033V.963h1.029v.033zM87.722 4.8c-.326 0-.587-.114-.783-.327a1.177 1.177 0 0 1-.31-.816c0-.326.098-.588.31-.8.196-.212.457-.31.783-.31.327 0 .588.114.784.326.196.229.31.49.31.817 0 .326-.098.588-.31.8a1.07 1.07 0 0 1-.784.31M86.629 6.367c0-.326.098-.587.31-.8.196-.212.457-.31.783-.31.327 0 .588.114.784.327.196.228.31.49.31.816" fill="#FFF" fill-rule="nonzero"/><g fill="#FFF" fill-rule="nonzero"><path d="M79.494 21.388V8.212h2.465v13.176zM95.38 14.694c.049 3.33-1.976 6.71-6.596 6.71h-5.176V8.23h5.176c4.522-.017 6.53 3.2 6.596 6.465zm-9.307 4.31h2.71c2.988 0 4.18-2.188 4.131-4.326-.049-2.058-1.257-4.098-4.13-4.098h-2.71v8.424z"/></g><path d="M74.563 10.27c.735-.31 1.208-.948 1.29-1.65v-.375a1.996 1.996 0 0 0-.31-.85c-.653-.864-1.519-.88-2.482-.832-.032-1.208.033-2.498-.18-3.69-.244-1.436-1.534-2.302-2.89-1.485-.962.636-1.028 1.616-1.044 2.661-.016.947.033 1.894.065 2.84-1.192.099-2.628.131-3.216 1.209V9.91c.196.327.506.604.914.768.719.244 1.519.146 2.27.065.032 1.796.065 3.592.065 5.388.016 1.6-.49 4.31 1.796 4.62 1.518.065 2.171-1.306 2.237-2.612.016-.441.016-.866 0-1.306-.082-2.106-.033-4.229-.017-6.335.523-.016 1.012-.033 1.502-.229zm-8.783 7.934v-4.473c.065.702.114 1.42.163 2.122s.163 1.42-.065 2.106c-.017.082-.066.163-.098.245zm0-11.086V5.437c.13.539.13 1.126 0 1.681zm0 .964c-.098.18-.18.391-.229.636-.049.441.033.85.229 1.176V8.082zm0-2.645v1.681a3.59 3.59 0 0 1-.637 1.388c.098.229.147.457.18.702.195 1.502.342 3.02.457 4.539v4.473c-.898 1.796-3.445 1.078-3.69-.865-.098-.735-.13-1.486-.18-2.237l-.375-4.506c-.164-.539-.213-1.175-.066-1.714-.228-.294-.473-.588-.685-.898a3.203 3.203 0 0 1-.278-.522V4.865c.408-.996 1.306-1.73 2.612-1.632.474.032.964.18 1.372.408.686.408 1.11 1.061 1.29 1.796zM60.506 19.51c.114-.196.18-.424.229-.67a2.069 2.069 0 0 0-.229-1.289v1.96zm0-14.661v2.612a3.523 3.523 0 0 1 0-2.612zm0 12.702c-.343-.637-.996-1.078-1.665-1.47L58.286 16c-.98.343-2.008.686-2.253 1.829-.033-1.143-.05-2.286-.066-3.429-.016-1.698.555-7.82-2.938-6.53-.441.195-.751.49-.996.914a9.444 9.444 0 0 0-1.666-.36c-.098-.016-.196-.016-.31-.032v4.049c.294 0 .604.032.882.065 1.094.98 1.208 2.53.392 3.706-.147.212-.31.392-.54.539-.179.114-.44.147-.734.114v4.033c.914.049 1.78-.082 2.661-.653 1.11 1.388 3.037.588 3.25-1.061 0-.017.016-.115.016-.098.62 2.024 3.559 2.122 4.49.408V17.55h.032zM50.09 8.391v4.05c-.425 0-.85.098-1.16.408-.75.751-.652 2.024-.603 3.004.032.539.995.98 1.763 1.029v4.016a16.035 16.035 0 0 1-1.666-.212c-1.6-.262-2.873-1.568-3.608-2.955-.67-1.258-.473-3.413-.18-4.768.213-.996.752-2.449 1.486-3.167.931-.882 2.662-1.453 3.968-1.404zM38.482 20.98c.636-.017 1.29-.131 1.926-.278 1.42-.343 2.351-1.339 3.135-2.498 1.159-1.714.718-4.62 0-6.449-.751-1.91-1.747-2.628-3.674-3.15a4.89 4.89 0 0 0-1.371-.132v4.05c.44 0 .865.097 1.175.408.8.8.67 2.171.588 3.2-.571.424-1.192.8-1.763.832v4.017h-.016zm0-12.507v4.05c-.31 0-.62.032-.898.065-1.062.898-1.208 2.449-.457 3.592.408.604.881.816 1.371.783v4c-.93.033-1.845-.13-2.694-.67-.93 1.16-2.628.834-3.15-.538-.295-.963.195-4.571-.23-4.882h-.081c-.767 3.298-3.69 4.441-6.825 3.935-1.6-.294-3.118-1.453-3.771-2.939-.408-.98-.327-2.04-.196-3.069.082-.522-.261-.016-.392.098-1.192 1.094-2.53.294-3.526-.588-.523-.473-1.306-.032-1.633.49.033 2.057.163 4.212.016 6.253l-.016.212c-.261 2.286-3.298 2.22-3.706.245-.229-1.371-.163-2.89-.212-4.277 0-.245.016-.343-.098-.555-.31.31-.098 2.58-.066 3.183.017.441.033.898-.016 1.339-.18 1.649-2.09 2.596-3.265 1.143-.751.49-1.698.702-2.694.686v-4.017c.49.033.963-.18 1.371-.8.702-1.094.588-2.694-.473-3.543-.294-.032-.588-.081-.898-.065V8.588c.424.016.881.081 1.388.196.196.049.391.098.604.163.473-.849 1.371-1.225 2.302-.98 1.094.409 1.371 1.355 1.485 2.4l.213-.081c.44-1.094 1.47-1.91 2.694-1.404.947-.555 2.155-.637 3.216-.54 1.437.164 3.543 1.176 3.918 2.678.066.229.13-.049.147-.13.327-1.078.85-2.09 1.339-3.102.914-.62 1.861-1.029 2.857-.245.49.44.718 1.028.702 1.681-.065 1.225-3.216 5.927-.081 5.91 1.355-.016 1.583-.93 1.616-2.105.033-1.698-2.106-3.462-.163-4.898 1.06-.686 2.35-.523 3.069.538.571.898.93 2.041 1.143 3.07.294.147.277-1.568.277-1.829.082-2.661-.065-5.371.18-8.016.294-2.727 3.902-2.22 3.853.36-.13 2.203-.147 4.407-.18 6.611.67-.196 1.323-.343 1.96-.392zm-32.54.082v4.016c-.44 0-.848.098-1.175.409-.783.783-.669 2.171-.587 3.183.571.425 1.175.784 1.747.833v4.016c-1.813-.016-3.723-.816-4.637-2.188-.098-.146-.196-.293-.294-.424-.49-.735-.767-1.747-.816-2.824v-.85c.114-2.334 1.142-4.8 2.955-5.567 1.045-.424 1.877-.62 2.808-.604z" fill="#F26E3D"/><path d="M74.563 10.27c1.143-.49 1.682-1.78.98-2.89-.653-.866-1.519-.882-2.482-.833-.032-1.208.033-2.498-.18-3.69-.244-1.437-1.534-2.302-2.89-1.486-.962.637-1.028 1.617-1.044 2.662-.016.947.033 1.894.065 2.84-1.388.131-3.118.131-3.445 1.845-.098.882.327 1.6 1.143 1.943.719.245 1.519.147 2.27.066.032 1.795.065 3.591.065 5.387.016 1.6-.49 4.31 1.796 4.62 1.518.066 2.171-1.305 2.237-2.612.016-.44.016-.865 0-1.306-.082-2.106-.033-4.228-.017-6.334.523 0 1.012-.017 1.502-.213zM61.91 15.117c.066.735.098 1.502.18 2.237.261 2.025 3.004 2.71 3.804.604.212-.686.114-1.404.065-2.106-.18-2.22-.343-4.457-.62-6.661a3.409 3.409 0 0 0-.18-.702c1.127-1.47 1.012-3.853-.637-4.866a3.42 3.42 0 0 0-1.371-.408c-2.596-.196-3.56 2.89-2.335 4.784.213.31.441.604.686.898-.147.539-.098 1.175.065 1.714l.343 4.506zM46.122 9.78c-.734.718-1.257 2.171-1.485 3.167-.294 1.355-.49 3.526.18 4.767.734 1.388 2.007 2.694 3.607 2.955 1.568.245 2.907.474 4.343-.44 1.11 1.387 3.037.587 3.25-1.062 0-.016.016-.114.016-.098.685 2.27 4.277 2.107 4.718-.245.163-1.37-.833-2.138-1.894-2.759L58.286 16c-.98.343-2.008.686-2.253 1.829-.033-1.143-.05-2.286-.066-3.429-.016-1.698.555-7.82-2.938-6.53-.441.195-.751.49-.996.914a9.444 9.444 0 0 0-1.666-.36c-1.306-.18-3.249.425-4.245 1.356zm5.241 6.449c-.147.212-.31.391-.539.538-.636.392-2.448-.18-2.497-.914-.066-.98-.164-2.253.604-3.004.522-.522 1.355-.425 2.04-.327 1.094.98 1.209 2.531.392 3.707zm-39.38-1.568c-.31.31-.097 2.58-.065 3.184.017.44.033.898-.016 1.339-.18 1.649-2.09 2.596-3.265 1.143-2.123 1.371-5.91.62-7.315-1.486-.098-.147-.195-.294-.293-.425-1.65-2.449-.768-8 2.155-9.24 1.47-.605 2.58-.784 4.163-.409.196.05.392.098.604.164.473-.85 1.371-1.225 2.302-.98 1.094.392 1.371 1.355 1.486 2.4l.212-.082c.44-1.093 1.47-1.91 2.694-1.404.947-.555 2.155-.636 3.216-.538 1.437.163 3.543 1.175 3.919 2.677.065.229.13-.049.147-.13.326-1.078.849-2.09 1.338-3.103.915-.62 1.862-1.028 2.857-.244.49.44.719 1.028.702 1.681-.065 1.225-3.216 5.927-.081 5.91 1.355-.016 1.584-.93 1.616-2.106.033-1.698-2.106-3.461-.163-4.898 1.061-.685 2.35-.522 3.07.54.57.897.93 2.04 1.142 3.068.294.147.278-1.567.278-1.828.081-2.661-.066-5.372.18-8.016.293-2.727 3.901-2.22 3.852.359-.13 2.204-.147 4.408-.18 6.612 1.078-.31 2.172-.539 3.282-.245 1.927.523 2.923 1.24 3.674 3.151.718 1.829 1.16 4.718 0 6.45-.784 1.158-1.714 2.154-3.135 2.497-1.583.343-3.2.522-4.62-.392-.93 1.16-2.629.833-3.151-.539-.294-.963.196-4.571-.229-4.881h-.081c-.768 3.298-3.69 4.44-6.825 3.934-1.6-.293-3.118-1.453-3.771-2.938-.409-.98-.327-2.041-.196-3.07.081-.522-.262-.016-.392.098-1.192 1.094-2.53.294-3.527-.587-.522-.474-1.306-.033-1.632.49.032 2.056.163 4.212.016 6.252l-.016.213c-.262 2.285-3.298 2.22-3.706.245-.229-1.372-.164-2.89-.213-4.278.082-.278.098-.376-.032-.588zm25.144 1.535c.897 1.339 2.057.718 3.134-.065.082-1.029.212-2.4-.588-3.2-.538-.523-1.371-.425-2.073-.327-1.078.898-1.224 2.45-.473 3.592zm-29.813 0c-.881 1.355-2.057.75-3.134-.033-.098-1.012-.196-2.4.587-3.183.54-.523 1.372-.425 2.074-.327 1.077.849 1.192 2.433.473 3.543z" fill="#F06E3E"/><path d="M10.008 21.061c-.359 0-.898-.13-1.388-.702-.702.441-1.616.686-2.612.686-1.943 0-3.853-.882-4.718-2.204-.066-.114-.147-.212-.229-.327l-.065-.098c-.914-1.355-1.094-3.69-.457-5.828.506-1.73 1.437-2.939 2.612-3.445 1.029-.425 1.812-.604 2.612-.604.49 0 .996.065 1.551.196.213.049.408.098.572.147.375-.67 1.012-1.045 1.763-1.045a2.3 2.3 0 0 1 .571.081c1.127.409 1.388 1.437 1.502 2.384l.164-.065c.375-.947 1.159-1.568 1.992-1.568.244 0 .49.05.718.147.653-.375 1.47-.571 2.433-.571.26 0 .522.016.783.049 1.42.163 3.576 1.175 3.935 2.694.016.049.016.065.033.065.016-.016.032-.065.065-.163v-.033c.294-.963.75-1.877 1.175-2.775.05-.115.115-.229.164-.327 0 0 0-.016.016-.016.457-.327 1.078-.686 1.73-.686.409 0 .8.147 1.176.44.49.442.735 1.03.718 1.715-.016.343-.26.93-.555 1.616-.555 1.34-1.257 2.988-.718 3.788.212.31.604.474 1.16.474h.016c1.273-.017 1.55-.817 1.6-2.074.016-.588-.245-1.208-.49-1.796-.457-1.077-.93-2.187.343-3.118.424-.278.881-.425 1.338-.425.719 0 1.34.343 1.764.964.636.98.98 2.204 1.142 3.07.082 0 .196-.295.213-1.666v-.147c.032-.947.032-1.927.032-2.857 0-1.698 0-3.445.164-5.16.147-1.37 1.094-1.844 1.86-1.844.54 0 1.078.228 1.47.62.408.408.604.963.604 1.584-.13 2.008-.147 4.065-.163 6.04v.54c.653-.18 1.42-.376 2.188-.376.375 0 .735.049 1.077.13 2.058.556 2.988 1.356 3.707 3.168.783 1.959 1.11 4.816 0 6.465-.654.98-1.617 2.139-3.152 2.514-.604.131-1.387.278-2.17.278-.948 0-1.748-.212-2.45-.67-.375.458-.882.703-1.42.703-.784 0-1.47-.507-1.747-1.274-.147-.457-.115-1.502-.082-2.498.033-1.077.065-2.188-.13-2.367h-.05c-.604 2.58-2.58 4.049-5.436 4.049-.457 0-.93-.033-1.42-.115-1.633-.293-3.152-1.485-3.788-2.97-.392-.98-.327-2.025-.213-3.087.017-.147 0-.18 0-.196-.049 0-.18.147-.245.229a.433.433 0 0 0-.081.098c-.392.36-.816.539-1.29.539-.686 0-1.42-.376-2.27-1.127a.73.73 0 0 0-.505-.196c-.441 0-.866.343-1.078.67.016.49.016 1.012.033 1.502.049 1.567.081 3.2-.017 4.734l-.016.213c-.147 1.208-1.045 1.747-1.878 1.747-.783 0-1.665-.474-1.877-1.502-.163-.964-.18-2.009-.196-3.02 0-.425-.016-.85-.033-1.258v-.082c0-.18 0-.277-.081-.424-.213.31-.115 1.828-.066 2.645.017.196.017.375.033.49.016.424.033.881-.016 1.338-.13 1.078-.964 1.894-1.927 1.894zm-1.371-.767c.016 0 .016 0 .016.016.376.457.849.702 1.355.702.93 0 1.747-.8 1.861-1.828.05-.457.033-.898.017-1.34 0-.113-.017-.277-.033-.489-.065-.914-.163-2.465.114-2.726 0 0 .017-.017.017 0 .016 0 .016 0 .016.016.114.196.114.294.114.49v.065c.017.408.017.849.033 1.257.016 1.012.033 2.041.196 3.004.212 1.012 1.061 1.453 1.828 1.453.817 0 1.682-.522 1.829-1.698l.016-.212c.098-1.55.066-3.167.017-4.735A47.105 47.105 0 0 1 16 12.751v-.016c.212-.343.67-.702 1.143-.702.212 0 .392.065.539.212.849.75 1.567 1.11 2.236 1.11.458 0 .866-.18 1.241-.522.017-.017.05-.05.082-.098.114-.147.212-.245.294-.245.016 0 .032 0 .049.016.032.033.032.114.016.245-.114 1.061-.196 2.09.196 3.053.62 1.453 2.139 2.629 3.739 2.923.473.081.947.114 1.404.114 2.824 0 4.8-1.47 5.388-4.033 0-.016.016-.016.032-.016h.098c.229.163.196 1.208.163 2.416-.032.996-.065 2.025.066 2.482.277.75.947 1.224 1.698 1.224.538 0 1.028-.245 1.404-.702.016-.016.032-.016.032 0 .702.457 1.502.67 2.45.67.783 0 1.55-.147 2.154-.278 1.519-.36 2.466-1.518 3.103-2.482 1.093-1.632.767-4.473-.017-6.416-.702-1.78-1.632-2.58-3.657-3.135a4.498 4.498 0 0 0-1.061-.13c-.768 0-1.551.196-2.204.375h-.033L36.54 8.8v-.571c.016-1.976.049-4.033.163-6.041a2.092 2.092 0 0 0-.588-1.551 2.03 2.03 0 0 0-1.42-.588c-.735 0-1.665.473-1.796 1.796-.163 1.698-.163 3.461-.147 5.143 0 .947 0 1.91-.033 2.857v.13c-.016 1.209-.098 1.731-.277 1.731-.017 0-.033 0-.05-.016-.015 0-.015-.017-.015-.017-.18-.849-.507-2.073-1.143-3.069-.409-.604-1.029-.947-1.715-.947-.44 0-.898.147-1.306.408-1.24.915-.8 1.96-.326 3.053.245.588.506 1.209.506 1.813-.033 1.273-.327 2.122-1.65 2.138h-.015c-.588 0-.996-.163-1.209-.49-.555-.816.164-2.497.719-3.836.294-.686.539-1.274.555-1.6.016-.67-.229-1.241-.702-1.665-.36-.278-.735-.425-1.127-.425-.62 0-1.224.36-1.681.67-.05.114-.115.212-.164.326-.44.882-.898 1.812-1.175 2.76v.032c-.033.114-.065.212-.114.212-.05 0-.066-.065-.082-.114-.36-1.486-2.498-2.498-3.886-2.661a6.312 6.312 0 0 0-.783-.05c-.964 0-1.78.196-2.417.572h-.032a1.885 1.885 0 0 0-.719-.147c-.816 0-1.567.604-1.943 1.535l-.016.016-.212.082h-.033l-.016-.017c-.098-.996-.36-1.959-1.47-2.367a2.15 2.15 0 0 0-.555-.065c-.718 0-1.355.375-1.714 1.028 0 .017-.016.017-.033.017-.18-.05-.375-.098-.587-.164a6.723 6.723 0 0 0-1.551-.196c-.8 0-1.584.18-2.596.605-1.16.49-2.074 1.697-2.58 3.412-.637 2.122-.457 4.457.44 5.78l.066.097c.082.115.147.213.229.327.865 1.306 2.743 2.171 4.67 2.171 1.011.066 1.91-.18 2.628-.62-.017 0-.017 0 0 0zm45.502.686c-.523 0-1.012-.245-1.388-.702-.702.44-1.437.653-2.318.653-.637 0-1.306-.098-2.009-.213-2.024-.326-3.216-2.187-3.64-2.971-.653-1.208-.523-3.265-.18-4.784.245-1.094.8-2.498 1.486-3.183.865-.817 2.465-1.404 3.804-1.404.18 0 .343.016.49.032.506.065 1.045.18 1.632.36.229-.409.555-.703.996-.899.85-.31 1.519-.212 2.008.278 1.078 1.094 1.013 3.87.98 5.518 0 .294-.016.555-.016.751v.278l.049 2.955c.31-.996 1.273-1.339 2.187-1.649h.033l.555.082h.016c1.094.636 2.074 1.404 1.91 2.791-.244 1.307-1.387 1.894-2.432 1.894-1.078 0-1.975-.587-2.302-1.518-.098.98-.914 1.73-1.861 1.73zm-1.372-.768c.017 0 .017 0 .017.017.359.457.832.702 1.355.702.914 0 1.714-.751 1.845-1.747v-.017c.016-.098.016-.098.032-.098.017 0 .033.017.033.033.294.963 1.192 1.584 2.286 1.584 1.012 0 2.138-.572 2.367-1.845.163-1.355-.8-2.106-1.878-2.727l-.538-.065h-.017c-.963.327-1.975.686-2.204 1.812 0 .017-.016.017-.032.017a.035.035 0 0 1-.033-.033c-.033-1.061-.049-2.123-.065-3.167V14.4c0-.196 0-.457.016-.751.033-1.649.098-4.408-.963-5.486a1.455 1.455 0 0 0-1.061-.44c-.262 0-.556.065-.882.179a2.02 2.02 0 0 0-.98.898c0 .016-.016.016-.032.016a10.441 10.441 0 0 0-1.65-.359 4.344 4.344 0 0 0-.49-.033c-1.322 0-2.905.588-3.77 1.388-.686.67-1.241 2.074-1.47 3.151-.326 1.519-.457 3.56.18 4.751.424.784 1.6 2.613 3.591 2.94.703.113 1.372.211 2.009.211.881 0 1.616-.196 2.334-.653-.016 0-.016 0 0 0zm18.172.555h-.115c-1.975-.26-1.91-2.269-1.844-3.885.016-.278.016-.54.016-.768 0-1.322-.033-2.677-.05-3.967 0-.457-.015-.914-.015-1.371l-.131.016c-.343.032-.686.065-1.045.065-.408 0-.767-.049-1.077-.163-.833-.343-1.274-1.094-1.16-1.976.327-1.616 1.845-1.747 3.184-1.845.082 0 .18-.016.261-.016 0-.13-.016-.261-.016-.392-.033-.8-.049-1.616-.049-2.416.016-1.094.114-2.057 1.061-2.678.36-.212.719-.31 1.061-.31.915 0 1.698.751 1.878 1.829.147.881.163 1.828.163 2.726 0 .31 0 .637.017.947.195-.016.342-.016.473-.016.702 0 1.437.098 2.008.865.327.506.408 1.078.229 1.617-.18.571-.637 1.06-1.225 1.322-.473.196-.93.212-1.47.212 0 .327 0 .653-.015.98-.017 1.747-.05 3.559.016 5.322.016.392.033.85 0 1.306-.05 1.176-.653 2.596-2.155 2.596zm-1.976-10.073h.017l.016.016c0 .474.016.93.016 1.404l.05 3.968c0 .228-.017.49-.017.767-.065 1.584-.13 3.56 1.796 3.82h.098c1.453 0 2.04-1.387 2.106-2.58.016-.456.016-.897 0-1.305-.065-1.78-.05-3.576-.016-5.323 0-.343.016-.67.016-1.012 0-.016.016-.033.033-.033.555 0 1.012-.032 1.485-.212.588-.245 1.029-.718 1.192-1.273.163-.523.082-1.078-.228-1.568-.556-.734-1.274-.832-1.96-.832-.147 0-.294 0-.506.016h-.016l-.016-.016c-.017-.327-.017-.653-.017-.964 0-.898-.016-1.828-.163-2.71-.18-1.045-.93-1.78-1.812-1.78-.343 0-.686.099-1.045.31-.914.605-1.012 1.552-1.029 2.646-.016.8.017 1.616.05 2.416 0 .147.016.278.016.424a.035.035 0 0 1-.033.033c-.098.016-.196.016-.294.033-1.322.114-2.824.228-3.135 1.796-.098.865.31 1.567 1.127 1.91.294.098.637.147 1.045.147.343 0 .702-.033 1.028-.065l.196-.033zm-4.783 8.571c-.898 0-1.96-.67-2.107-1.91-.065-.49-.097-1.012-.13-1.502l-.05-.735-.375-4.506c-.18-.571-.212-1.208-.081-1.714l-.066-.082c-.212-.26-.424-.522-.604-.8-.653-1.012-.718-2.416-.13-3.477.506-.947 1.404-1.42 2.498-1.339.49.033.963.18 1.387.408.702.441 1.176 1.143 1.34 2.008.179 1.013-.066 2.09-.686 2.89.081.229.146.457.18.686.277 2.122.44 4.31.603 6.432l.017.23c0 .097.016.195.016.277.049.604.114 1.24-.082 1.828-.294.833-.93 1.306-1.73 1.306zM62.873 3.233c-.963 0-1.746.473-2.204 1.322-.571 1.045-.522 2.416.131 3.412.18.278.392.54.604.8l.082.098v.033c-.13.49-.115 1.126.065 1.698l.376 4.506.049.735c.032.49.065 1.012.13 1.502a2.1 2.1 0 0 0 2.057 1.861c.768 0 1.388-.457 1.698-1.257.18-.588.13-1.208.082-1.812 0-.098-.016-.196-.016-.278l-.017-.229c-.163-2.122-.326-4.31-.604-6.432a2.357 2.357 0 0 0-.18-.686v-.033a3.64 3.64 0 0 0 .67-2.857c-.163-.849-.62-1.55-1.306-1.975a3.273 3.273 0 0 0-1.372-.408h-.245zM6.057 17.029c-.637 0-1.306-.425-1.877-.85l-.017-.016c-.081-.963-.212-2.4.588-3.2.294-.277.686-.408 1.24-.408.278 0 .572.033.866.065h.016c1.029.833 1.241 2.4.49 3.592-.375.539-.8.817-1.306.817zm-1.845-.882c.555.408 1.208.816 1.829.816.49 0 .898-.261 1.24-.783.752-1.16.54-2.694-.473-3.51-.277-.033-.555-.066-.849-.066-.539 0-.914.13-1.192.392-.75.784-.636 2.204-.555 3.15zm34.172.849c-.506 0-.93-.261-1.274-.8-.783-1.192-.571-2.743.474-3.625h.016c.294-.032.571-.081.865-.081.54 0 .947.13 1.241.408.8.8.686 2.171.604 3.184v.032c0 .017 0 .017-.016.017-.604.44-1.274.865-1.91.865zm-.784-4.36c-1.012.866-1.208 2.384-.457 3.544.343.522.75.767 1.224.767.62 0 1.274-.425 1.845-.833v-.016c.082-.996.196-2.367-.588-3.135-.277-.277-.669-.392-1.191-.392a3.584 3.584 0 0 0-.833.066zm12.653 4.278c-.833 0-1.91-.506-1.943-1.06v-.099c-.065-.98-.13-2.188.62-2.922.278-.278.686-.409 1.209-.409.277 0 .571.033.849.066h.016c1.078.963 1.24 2.547.392 3.755-.13.18-.294.392-.555.539-.147.098-.343.13-.588.13zm-.13-4.44c-.523 0-.899.13-1.176.391-.718.719-.653 1.91-.588 2.89v.098c.033.539 1.078 1.012 1.894 1.012.229 0 .425-.049.555-.114.196-.114.36-.278.539-.522.833-1.176.67-2.727-.376-3.658a3.765 3.765 0 0 0-.849-.098z" fill="#841723" fill-rule="nonzero"/><path d="M70.171 9.91c.033 2.76.131 5.535.066 8.31-.017.556.081 1.372.8 1.404 1.159-.065.914-2.22.881-2.89-.081-2.432-.016-4.865 0-7.297.768-.164 1.78.147 2.45-.327.179-.147.31-.326.342-.555.082-1.224-2.09-.653-2.759-.718-.13-1.486-.016-2.988-.18-4.49-.049-.392-.114-.947-.587-1.045-1.143-.13-1.045 1.371-1.045 2.09 0 1.208.049 2.416.098 3.624-.915.066-1.878.098-2.776.278-.816.18-1.077 1.24-.049 1.371.915.098 1.829-.212 2.743-.147l.016.392z" fill="#FFF"/><path d="M71.037 19.64c-.555-.032-.85-.522-.833-1.436.05-2.09.016-4.212-.033-6.27a83.714 83.714 0 0 1-.032-2.024v-.343h-.245c-.343 0-.702.05-1.029.082a7.508 7.508 0 0 1-1.045.082c-.147 0-.26 0-.391-.017-.425-.049-.686-.277-.702-.587-.017-.327.26-.735.75-.833.752-.147 1.535-.196 2.286-.245.164-.016.31-.016.474-.033a85.594 85.594 0 0 1-.098-3.608v-.163c0-.539-.017-1.355.375-1.747.18-.18.408-.245.702-.212.49.098.572.702.604 1.06.082.768.098 1.568.098 2.336 0 .702.017 1.42.082 2.122.147.016.408 0 .67-.033.26-.016.554-.049.832-.049.555 0 .898.098 1.094.31.13.131.18.31.163.523a.87.87 0 0 1-.359.572c-.343.244-.8.277-1.224.277H72.604c-.18 0-.408 0-.637.05 0 .57-.016 1.126-.016 1.697-.016 1.829-.049 3.722.016 5.567 0 .066 0 .147.017.229.032.865.114 2.629-.947 2.694zM69.894 9.503c.098 0 .18 0 .277.016.017 0 .033.017.033.033v.376c.016.669.016 1.371.033 2.024.032 2.057.081 4.18.032 6.27-.016.881.245 1.355.768 1.37 1.012-.064.914-1.795.865-2.628 0-.081-.016-.163-.016-.228-.066-1.862-.033-3.74-.017-5.568 0-.571.017-1.143.017-1.714 0-.016.016-.033.016-.033.229-.049.474-.049.67-.049h.571c.424 0 .865-.032 1.192-.26a.963.963 0 0 0 .343-.54c.016-.195-.033-.359-.147-.473-.18-.196-.523-.278-1.045-.278-.278 0-.572.033-.833.05-.294.016-.555.048-.702.032a.035.035 0 0 1-.033-.033 23.995 23.995 0 0 1-.081-2.155c-.017-.767-.017-1.55-.098-2.334-.033-.343-.115-.915-.555-1.013h-.13a.715.715 0 0 0-.523.196c-.36.376-.36 1.176-.36 1.698v.163c0 1.225.05 2.466.098 3.625a.035.035 0 0 1-.032.033c-.164.016-.327.016-.49.032-.751.05-1.535.098-2.286.245-.457.098-.718.474-.702.784.017.294.245.49.637.539.114.016.245.016.392.016.343 0 .702-.049 1.045-.082.359-.081.718-.114 1.06-.114z" fill="#891A1C" fill-rule="nonzero"/><path d="M63.102 8.327c.343.016.686-.066.947-.294.278-.278.457-.67.571-1.045.213-.784.017-1.812-.718-2.253a2.196 2.196 0 0 0-.784-.245h-.016v1.42c.065.017.13.033.163.082.164.245.13.539.017.784-.05.081-.066.114-.164.114h-.016v1.437zm-.8-.18c.114.049.245.098.36.13.13.033.277.05.424.066V6.906c-.017 0-.05 0-.066-.016-.081-.098-.18-.196-.212-.327-.016-.065-.016-.114-.016-.18 0-.195-.033-.505.245-.456h.049v-1.42c-.67-.066-1.306.244-1.535.897-.098.31-.13.653-.13.98v.13c.032.637.506 1.16.881 1.633z" fill="#FFF"/><path d="M63.151 8.36c-.163 0-.327-.017-.49-.066a2.538 2.538 0 0 1-.375-.13s-.017 0-.017-.017c-.032-.033-.065-.082-.098-.114-.359-.441-.767-.931-.783-1.535 0-.457.032-.816.147-1.127.196-.571.734-.93 1.371-.93.065 0 .13 0 .196.016.294.033.571.13.784.245.767.474.947 1.502.734 2.286-.13.457-.326.816-.571 1.045-.278.277-.637.326-.898.326zm-.833-.246c.115.05.229.082.36.13.146.034.31.066.473.066.36 0 .67-.098.882-.277.245-.229.424-.572.555-1.029.212-.767.032-1.763-.702-2.22a2.494 2.494 0 0 0-.768-.245c-.065 0-.13-.017-.196-.017-.62 0-1.126.343-1.322.898-.098.31-.147.653-.13 1.11.016.572.424 1.062.767 1.503.032.016.049.049.081.081zm.8-1.192c-.032 0-.065 0-.081-.016h-.017c-.081-.098-.18-.212-.212-.343-.016-.065-.016-.114-.016-.18v-.065c0-.13 0-.294.081-.375.05-.05.115-.065.196-.05.082.017.18.034.229.115.163.229.163.523.016.816-.049.05-.081.098-.196.098zm-.065-.065c.016 0 .033.016.049.016.082 0 .098-.016.147-.097.147-.278.147-.54 0-.752-.049-.048-.13-.065-.196-.081-.065-.016-.114 0-.147.033-.065.065-.065.212-.065.326v.082c0 .049 0 .114.016.163.033.114.114.212.196.31z" fill="#841723" fill-rule="nonzero"/><path d="M62.873 12.506c.131 1.535.245 3.07.376 4.604.049.523.343.963.914.947.67-.065.686-.767.653-1.29-.114-2.008-.326-4.016-.522-6.008-.05-.473-.082-.947-.147-1.42-.082-.572-.425-.947-1.012-.751-.702.261-.637 1.175-.425 1.763l.163 2.155z" fill="#FFF"/><path d="M64.147 18.09c-.604 0-.882-.523-.914-.98l-.245-3.053c-.05-.522-.082-1.045-.13-1.55l-.18-2.14c-.18-.49-.327-1.502.44-1.796a1.11 1.11 0 0 1 .31-.049c.392 0 .686.31.752.833a34 34 0 0 1 .13 1.208l.017.213.097 1.044c.164 1.617.327 3.298.425 4.964.033.604-.016 1.24-.686 1.322 0-.016-.016-.016-.016-.016zm-.718-9.519c-.082 0-.18.017-.294.05-.67.26-.62 1.175-.408 1.714l.18 2.155c.048.522.08 1.045.13 1.55l.245 3.038c.032.44.294.946.881.93.604-.065.653-.67.62-1.257-.097-1.649-.26-3.33-.424-4.947l-.098-1.045-.016-.212a30.328 30.328 0 0 0-.13-1.208c-.066-.474-.31-.768-.686-.768z" fill="#841723" fill-rule="nonzero"/><path d="M57.143 18.384c-.016.13-.016.26 0 .408.065.473.539.718.98.8.375.081.734-.016 1.044-.245.245-.18.392-.408.409-.702a1.04 1.04 0 0 0-.278-.718 1.563 1.563 0 0 0-.784-.441h-.049l-.032-.213c-.474.18-1.094.343-1.241.898a.503.503 0 0 0-.05.213" fill="#FFF"/><path d="M58.367 19.657c-.081 0-.18-.016-.26-.033-.278-.065-.931-.26-.997-.832a1.705 1.705 0 0 1 0-.408c.017-.066.017-.147.033-.213.13-.506.637-.702 1.094-.865.065-.016.114-.049.163-.065h.033l.016.016.033.196h.032c.278.049.572.212.8.44.196.213.294.458.294.736-.016.293-.147.522-.408.734-.278.196-.555.294-.833.294zm.033-2.35c-.049.015-.098.032-.13.048-.425.163-.915.343-1.046.816a.956.956 0 0 0-.032.213 1.567 1.567 0 0 0 0 .392c.065.538.686.734.963.783.36.065.702-.016 1.012-.228.245-.196.376-.409.392-.686 0-.261-.098-.49-.277-.702a1.501 1.501 0 0 0-.768-.425h-.049c-.016 0-.016-.016-.032-.032l-.033-.18z" fill="#841723" fill-rule="nonzero"/><path d="M54.678 10.988c-.033-.686-.066-2.286-1.16-1.96-.653.245-.604.98-.555 1.552-.539-.392-1.224-.572-1.861-.735a9.366 9.366 0 0 0-1.045-.18v1.698c.31 0 .62.017.914.05.294.032.523.114.735.31 1.045.93 1.567 2.497 1.24 3.853-.31 1.257-1.452 2.775-2.889 2.628v1.6c.212.016.408.016.62.016 1.176-.065 1.943-.898 2.678-1.714.016.555-.049 1.437.588 1.698 1.028.327.898-1.306.865-1.877-.049-2.303 0-4.62-.13-6.94zm-4.605-1.306a3.653 3.653 0 0 0-1.567.245c-.375.13-.767.277-1.11.457-.898.506-1.16 1.518-1.502 2.432-.114.327-.18.67-.229 1.013-.065.538-.13 1.126-.147 1.698v.195c.017.654.131 1.274.474 1.813l.294.44c.571.85 1.436 1.486 2.465 1.65.425.065.882.146 1.322.18v-1.6c-.016 0-.049 0-.065-.017-.718-.115-1.486-.392-2.057-.85-.375-.293-.718-.407-.784-.897-.114-.882-.13-1.861.05-2.727.179-.816.554-1.404 1.207-1.926.213-.082.409-.18.605-.294.147-.098.277-.114.457-.114h.587V9.682z" fill="#FFF"/><path d="M54.22 19.886a.812.812 0 0 1-.26-.05c-.589-.244-.605-.995-.605-1.534v-.114c-.735.783-1.486 1.6-2.661 1.665-.555.016-1.127-.065-1.665-.163l-.278-.05c-.98-.162-1.861-.75-2.482-1.664l-.293-.441c-.637-.964-.49-2.27-.36-3.413.017-.098.017-.212.033-.31.049-.375.114-.718.229-1.028.032-.098.065-.18.098-.278.293-.833.604-1.714 1.404-2.171.326-.18.669-.31 1.012-.425l.098-.032c.473-.164.881-.245 1.322-.245.376 0 .768.049 1.306.18.653.163 1.29.326 1.813.701-.05-.473-.098-1.257.571-1.502a.906.906 0 0 1 .278-.049c.816 0 .881 1.241.914 1.91v.115c.082 1.355.082 2.743.098 4.081.016.947.016 1.91.049 2.874v.114c.016.457.049 1.323-.278 1.665-.065.115-.196.164-.343.164zm-.849-1.796c.017 0 .017 0 0 0 .017 0 .033.016.033.032v.18c.016.555.016 1.257.572 1.486.081.032.163.032.228.032a.47.47 0 0 0 .343-.147c.31-.326.277-1.175.261-1.616v-.114a85.054 85.054 0 0 1-.049-2.874c-.016-1.338-.032-2.726-.098-4.081v-.115c-.032-.653-.098-1.86-.849-1.86a.812.812 0 0 0-.261.048c-.604.229-.588.898-.522 1.519 0 .016 0 .016-.017.032h-.032c-.523-.375-1.16-.555-1.845-.718-.54-.13-.915-.18-1.29-.18-.425 0-.85.082-1.306.245l-.098.033c-.343.13-.686.245-.996.424-.8.457-1.094 1.306-1.388 2.14-.033.097-.065.179-.098.277-.114.31-.18.636-.228 1.012-.017.098-.017.196-.033.31-.13 1.143-.278 2.433.36 3.38l.293.44c.604.898 1.47 1.486 2.449 1.633.098.016.18.033.278.05.538.08 1.11.179 1.649.146 1.159-.065 1.91-.882 2.628-1.665l.033-.033c-.033-.016-.017-.016-.017-.016zm-3.085.163c-.098 0-.196 0-.278-.016-.8-.13-1.535-.425-2.073-.85-.082-.065-.164-.114-.229-.163-.277-.195-.506-.342-.555-.75-.082-.719-.147-1.764.049-2.743.18-.817.555-1.42 1.224-1.943.196-.082.409-.18.605-.294.147-.098.277-.114.473-.114h.522c.31 0 .654 0 .996.049.327.032.556.13.751.31 1.062.963 1.568 2.514 1.241 3.885-.326 1.274-1.436 2.63-2.726 2.63zM48.44 11.82c-.653.523-1.029 1.11-1.192 1.91-.196.964-.147 2.025-.049 2.727.049.376.261.523.539.719.081.048.147.097.228.163.54.408 1.257.702 2.041.832.098.017.18.017.278.017 1.273 0 2.35-1.323 2.66-2.612.327-1.356-.179-2.89-1.224-3.837-.195-.18-.408-.261-.718-.294-.343-.033-.67-.05-.98-.05h-.522c-.18 0-.294.017-.44.115-.213.13-.425.229-.621.31z" fill="#841723" fill-rule="nonzero"/><path d="M38.4 9.714c.914-.065 1.812.245 2.629.67.75.392.98.947 1.29 1.714.228.588.44 1.126.522 1.763.065.539.13 1.127.147 1.698v.196c-.017.653-.13 1.274-.474 1.796-.114.18-.245.36-.359.539-.604.914-1.535 1.42-2.596 1.583-.375.05-.75.115-1.143.147v-1.616c.13-.016.278-.033.425-.065.473-.13.98-.278 1.404-.539.637-.392 1.061-.62 1.126-1.371.082-.996.098-2.041-.212-2.988-.196-.588-.604-1.045-1.077-1.42-.245-.099-.506-.294-.751-.376a.82.82 0 0 0-.196-.033c-.245-.016-.474-.032-.719-.032V9.714H38.4zm-4.751 6.743c.033-1.73.033-3.461.114-5.192.147-3.004 0-6.024.213-9.028.032-.457.065-.93.636-.947 1.143.049.833 1.273.817 2.04-.082 2.482-.164 4.98-.115 7.462.719-.653 1.878-.882 2.792-1.029.098-.016.196-.032.294-.032v1.681c-.702-.016-1.371.066-1.894.572-.49.49-.8 1.175-.996 1.828-.539 1.845.8 4.588 2.89 4.408v1.617c-.163.016-.327.016-.49.016-1.257-.016-2.04-.849-2.84-1.714-.017.571.032 1.437-.588 1.698-1.029.326-.898-1.306-.882-1.861.033-.507.049-1.013.049-1.519z" fill="#FFF"/><path d="M34.237 19.918a.473.473 0 0 1-.376-.163c-.343-.343-.294-1.208-.277-1.665v-.13c.016-.507.032-1.013.032-1.52 0-.473.017-.946.017-1.42.016-1.24.032-2.514.081-3.771.066-1.339.066-2.71.082-4.033.016-1.632.016-3.33.13-4.996v-.016c.033-.457.082-.93.67-.963.294.016.506.098.653.261.294.343.245.93.212 1.437-.016.13-.016.261-.032.375-.082 2.498-.164 4.93-.115 7.396.686-.588 1.73-.832 2.76-.996.881-.13 1.828.082 2.938.637.768.408.996.996 1.29 1.73l.016.033c.229.572.441 1.11.506 1.73.017.099.017.197.033.311.13 1.143.278 2.45-.375 3.412l-.164.245-.196.294c-.587.865-1.485 1.42-2.612 1.6-.065.016-.13.016-.196.033-.457.065-.93.147-1.404.147h-.032c-1.258-.017-2.058-.85-2.809-1.666v.115c-.016.555-.016 1.306-.604 1.55a.964.964 0 0 1-.228.033zm.392-18.612c-.54.016-.572.44-.605.898v.016c-.114 1.65-.13 3.347-.13 4.996a83.49 83.49 0 0 1-.082 4.033c-.065 1.257-.065 2.53-.081 3.771 0 .474-.017.947-.017 1.42-.016.523-.016 1.03-.032 1.52v.13c-.017.44-.05 1.29.26 1.616.131.147.327.18.572.098.555-.228.555-.93.572-1.486v-.18c0-.016 0-.016.016-.032h.033c.767.833 1.567 1.682 2.824 1.698h.033c.473 0 .93-.065 1.388-.147.065-.016.13-.016.196-.033 1.11-.163 2.008-.718 2.58-1.567l.195-.294.163-.245c.637-.947.49-2.236.36-3.38-.017-.097-.017-.211-.033-.31-.065-.62-.278-1.159-.506-1.714l-.017-.032c-.294-.735-.522-1.306-1.273-1.698-1.094-.555-2.04-.768-2.906-.637-1.045.163-2.106.408-2.776 1.012-.016 0-.016.017-.032 0-.017 0-.017-.016-.017-.032-.049-2.482.033-4.947.115-7.462 0-.114.016-.245.032-.375.05-.506.098-1.078-.196-1.404a1.555 1.555 0 0 0-.636-.18zm3.591 16.947c-.767 0-1.485-.392-2.04-1.126-.719-.947-.996-2.286-.702-3.331.244-.8.571-1.42 1.012-1.845.539-.522 1.192-.588 1.78-.588.244 0 .49.017.718.033h.13a.82.82 0 0 1 .196.033c.147.049.294.13.441.212.098.065.212.114.327.163.555.44.914.898 1.094 1.437.326.98.293 2.073.212 3.004-.066.718-.474.98-1.045 1.339l-.098.065c-.44.261-.963.424-1.42.539a2.536 2.536 0 0 1-.605.065zm.066-6.824c-.572 0-1.225.065-1.747.571-.425.424-.751 1.029-.996 1.829-.294 1.028-.016 2.35.686 3.281.538.702 1.24 1.094 1.991 1.094.196 0 .392-.033.604-.082.441-.114.964-.26 1.405-.522l.098-.065c.571-.36.963-.588 1.012-1.29.081-.93.114-2.008-.212-2.988-.18-.506-.523-.98-1.062-1.404-.114-.049-.212-.114-.326-.163-.147-.082-.278-.163-.425-.212-.065-.017-.13-.033-.196-.033h-.13c-.229 0-.474-.016-.702-.016z" fill="#841723" fill-rule="nonzero"/><path d="M23.967 9.012c-.408.85-.832 1.73-1.028 2.645-.18.865-.294 1.763-.278 2.645.017 1.24.735 2.188 1.78 2.792.522.31 1.094.555 1.714.571.604 0 1.208.017 1.796-.016.8-.065 1.502-.44 2.122-.93.31-.246.556-.54.719-.899.653-1.453.735-3.102.294-4.62-.196-.653-.441-1.42-.85-1.976-.31-.391-.734-.424-1.175-.244-.881.424-.326 1.306-.032 1.926.244.539.457.98.506 1.584a6.477 6.477 0 0 1-.147 1.861c-.245.963-.915 1.633-1.878 1.845-.865.18-1.812.082-2.53-.49-.702-.555-.768-1.306-.768-2.171.033-1.045.425-2.106.85-3.053.26-.572.75-1.078.522-1.747-.245-.588-.817-.572-1.29-.262l-.114.082c-.082.163-.147.31-.213.457" fill="#FFF"/><path d="M27.07 17.714h-.948c-.669 0-1.24-.294-1.73-.571-1.143-.67-1.78-1.665-1.796-2.825 0-.8.082-1.665.277-2.645.18-.881.588-1.73.98-2.53l.065-.114c.066-.147.147-.294.213-.441 0 0 0-.017.016-.017l.114-.081c.212-.147.441-.212.653-.212.31 0 .555.18.686.49.18.505-.065.93-.294 1.338-.082.13-.163.278-.228.425-.409.914-.817 1.991-.85 3.036-.016.8.033 1.584.752 2.155.473.376 1.06.572 1.73.572.245 0 .506-.033.768-.082.963-.212 1.616-.865 1.86-1.828.148-.588.197-1.225.148-1.845-.05-.588-.262-1.029-.49-1.535l-.016-.033-.098-.195c-.213-.425-.441-.915-.31-1.307.065-.196.212-.342.44-.457.18-.081.343-.114.506-.114.278 0 .523.13.719.36.392.538.62 1.256.849 1.991.457 1.567.359 3.216-.294 4.653a2.552 2.552 0 0 1-.735.898c-.735.571-1.42.882-2.139.93-.228-.032-.49-.016-.849-.016zm-2.874-9.126c-.065.147-.147.294-.212.44l-.066.115c-.391.8-.783 1.649-.963 2.53-.196.98-.294 1.845-.277 2.645.016 1.127.636 2.106 1.763 2.776.473.277 1.045.555 1.698.555h.947c.343 0 .62 0 .865-.016.702-.05 1.388-.36 2.106-.931.327-.261.555-.555.719-.882.636-1.42.734-3.053.293-4.604-.212-.734-.457-1.436-.832-1.975-.18-.229-.392-.343-.67-.343-.147 0-.31.033-.473.114-.212.115-.36.245-.425.425-.13.375.098.849.31 1.273l.099.196.016.033c.245.522.457.963.506 1.567a6.544 6.544 0 0 1-.147 1.878c-.245.996-.93 1.649-1.91 1.877a4.257 4.257 0 0 1-.784.082c-.686 0-1.29-.196-1.763-.572-.735-.587-.784-1.371-.767-2.204.032-1.06.44-2.138.849-3.069.065-.147.146-.294.228-.425.229-.408.457-.8.294-1.29-.147-.375-.424-.456-.62-.456s-.409.065-.62.212l-.164.049z" fill="#841723" fill-rule="nonzero"/><path d="M14.857 18.857c.05-.833 0-1.681-.016-2.514-.017-1.274.049-2.563-.033-3.837 0-.065.114-.228.163-.294.572-.898 1.584-1.485 2.678-1.24.033.016.082.016.114.032.751.245 1.813 1.878 2.629.996.343-.424.245-.963-.18-1.29-.49-.359-.93-.783-1.502-.996a3.638 3.638 0 0 0-.702-.163c-1.192-.18-2.547-.098-3.412.833a.97.97 0 0 0-.425-.425c-.506-.196-.832.147-1.126.506.098 2.564.212 5.143.326 7.706.033.572-.065 2.041.915 1.813.522-.18.555-.686.571-1.127" fill="#FFF"/><path d="M14.122 20.033c-.718 0-.734-1.029-.75-1.65v-.212l-.245-5.926-.082-1.796v-.016c.228-.294.49-.572.849-.572a.64.64 0 0 1 .294.066c.18.081.326.228.408.391.571-.587 1.388-.898 2.433-.898.31 0 .636.033.963.082.277.049.506.098.718.18.425.163.784.44 1.127.702l.392.294c.228.18.359.408.391.669a.853.853 0 0 1-.212.67c-.163.179-.343.277-.555.277-.424 0-.849-.36-1.273-.702-.294-.245-.572-.474-.817-.555-.032-.017-.081-.017-.114-.033a2.456 2.456 0 0 0-.473-.049c-.85 0-1.666.474-2.172 1.29-.016.016-.016.033-.033.049-.049.065-.13.18-.114.228.065.833.05 1.682.033 2.498 0 .441-.017.898 0 1.323 0 .245.016.49.016.735.016.587.033 1.191 0 1.795v.017c-.033.457-.049.963-.571 1.126-.082 0-.147.017-.213.017zm-1.012-9.568.066 1.764c.081 1.942.163 3.95.244 5.926v.212c.017.604.033 1.6.686 1.6.05 0 .114 0 .18-.016.473-.163.506-.62.538-1.078v-.016c.033-.588.017-1.192 0-1.78 0-.244-.016-.49-.016-.734v-1.339a31.87 31.87 0 0 0-.032-2.498c0-.065.048-.163.13-.261.016-.016.033-.033.033-.05.522-.815 1.339-1.305 2.22-1.305.163 0 .327.016.49.049.049.016.082.016.13.032.262.082.54.31.85.556.408.342.832.685 1.24.685.196 0 .36-.081.523-.245.147-.18.228-.391.196-.62-.033-.245-.164-.457-.36-.637l-.391-.294c-.343-.26-.686-.538-1.11-.702a3.433 3.433 0 0 0-.703-.163 6.768 6.768 0 0 0-.963-.082c-1.045 0-1.861.31-2.416.898 0 0-.016.017-.033.017-.016 0-.016 0-.016-.017-.065-.163-.229-.31-.408-.408a.83.83 0 0 0-.278-.049c-.326 0-.588.278-.8.555z" fill="#841723" fill-rule="nonzero"/><path d="M10.58 10.955c-.05-.686-.082-2.188-1.16-1.877-.653.244-.604.98-.555 1.534-.702-.522-1.73-.734-2.58-.865a2.436 2.436 0 0 0-.342-.033v1.698c.31 0 .62.017.93.05.294.032.523.114.751.293 1.062.947 1.584 2.53 1.225 3.902-.343 1.257-1.47 2.678-2.89 2.53v1.6c.212.017.408.017.62.017 1.192-.065 1.943-.898 2.694-1.698.017.555-.049 1.42.588 1.698 1.045.327.898-1.355.866-1.926-.066-2.302-.017-4.62-.147-6.923zm-4.62-1.24a3.669 3.669 0 0 0-1.6.26c-.36.131-.736.262-1.078.458-.898.506-1.176 1.518-1.502 2.416-.278.8-.31 1.747-.343 2.596V15.918c0 .49.065.98.31 1.404.147.229.294.458.457.67.555.816 1.42 1.453 2.416 1.616.441.065.898.147 1.356.18v-1.6l-.278-.05c-.588-.146-1.225-.31-1.714-.685-.408-.31-.85-.473-.93-1.012-.099-.833-.132-1.78.032-2.612.163-.866.538-1.47 1.24-2.025.213-.082.409-.18.605-.294.147-.098.277-.114.457-.114h.588V9.714h-.017z" fill="#FFF"/><path d="M10.106 19.87a.812.812 0 0 1-.261-.05c-.588-.244-.604-.996-.604-1.534v-.115c-.735.784-1.502 1.6-2.678 1.666h-.196c-.506 0-1.012-.082-1.502-.164a9.315 9.315 0 0 1-.277-.049c-.964-.146-1.845-.734-2.45-1.632-.048-.065-.097-.147-.146-.212-.098-.147-.212-.31-.31-.458-.327-.555-.327-1.191-.31-1.893.032-.833.065-1.78.342-2.596.033-.082.066-.18.098-.262.294-.849.604-1.714 1.42-2.171.327-.18.67-.31 1.013-.424l.082-.033c.522-.196.93-.278 1.371-.278.196 0 .375.017.588.05.865.146 1.845.358 2.53.832-.049-.474-.098-1.257.572-1.502a.906.906 0 0 1 .277-.05c.8 0 .866 1.21.915 1.846v.098c.081 1.355.098 2.743.114 4.081.016.931.016 1.894.049 2.841v.13c.016.474.065 1.34-.278 1.699-.081.13-.196.18-.359.18zm-.833-1.78c.017 0 .033.016.033.032v.18c.016.555.016 1.257.572 1.486.081.032.163.032.228.032a.47.47 0 0 0 .343-.147c.327-.342.278-1.191.261-1.649v-.13a83.141 83.141 0 0 1-.049-2.84c-.016-1.34-.032-2.727-.114-4.083v-.098c-.033-.62-.098-1.795-.849-1.795a.74.74 0 0 0-.261.049c-.588.212-.604.849-.523 1.502 0 .016 0 .016-.016.032h-.033c-.685-.506-1.681-.718-2.563-.865a3.57 3.57 0 0 0-.588-.05c-.424 0-.832.083-1.355.262l-.081.033a5.374 5.374 0 0 0-.996.424c-.8.441-1.094 1.306-1.388 2.14-.033.08-.065.179-.098.26-.278.817-.31 1.747-.343 2.58-.016.702-.016 1.322.31 1.861.098.163.196.31.31.457.05.066.098.147.147.213.588.865 1.47 1.453 2.4 1.6.098.016.196.032.278.048.49.082.996.164 1.486.164h.18c1.158-.066 1.91-.866 2.644-1.65l.033-.048h.032zm-3.118.147c-.163 0-.326-.017-.49-.066-.604-.147-1.24-.326-1.714-.685a4.084 4.084 0 0 0-.278-.196c-.31-.212-.604-.408-.669-.833-.114-.947-.114-1.877.033-2.628.163-.866.555-1.502 1.24-2.041.196-.082.409-.18.605-.294.147-.098.277-.114.473-.114h.538c.311 0 .638 0 .98.049.327.032.556.13.768.31 1.094.98 1.6 2.563 1.24 3.934-.342 1.241-1.403 2.564-2.726 2.564zm-1.845-6.4c-.686.539-1.045 1.143-1.224 2.008-.13.735-.147 1.665-.033 2.596.065.408.327.588.637.8.098.065.18.13.277.196.474.359 1.094.522 1.698.67.164.032.31.048.474.048 1.29 0 2.334-1.306 2.661-2.514.36-1.355-.13-2.923-1.208-3.886-.196-.18-.408-.261-.735-.294-.343-.032-.67-.049-.98-.049H5.34c-.18 0-.294.017-.441.115-.18.146-.392.228-.588.31z" fill="#841723" fill-rule="nonzero"/></g></svg>